<?xml version="1.0" encoding="utf-8"?>
<!-- Generator: Adobe Illustrator 19.2.1, SVG Export Plug-In . SVG Version: 6.00 Build 0)  -->
<svg version="1.1" id="abralogo_xA0_Image_1_" xmlns="http://www.w3.org/2000/svg" xmlns:xlink="http://www.w3.org/1999/xlink"
	 x="0px" y="0px" viewBox="0 0 320.2 326.7" style="enable-background:new 0 0 320.2 326.7;" xml:space="preserve">
<style type="text/css">
	.st0{fill:#6D6D6D;}
</style>
<g>
	<path class="st0" d="M252.4,189.7c2.4-0.1,3.7-0.2,5-0.2c9.5-0.1,16.3,8.1,14.5,17.3c-0.7,3.7-2.8,6.3-6.6,7.3
		c-5.3,1.4-10.3-2.7-9.8-8.1c0.2-2.6,1.1-3.4,4.8-4.8c5.1,2.6,5.1,4.7,0.2,9.1c3.7,2.3,7.3,0.8,8.5-3.6c2-7.2-4.1-14.9-11.7-14.5
		c-2.4,0.1-4.8,0.9-6.6,1.2c-4.2,4.7-4.6,10.2-5.8,15.4c-2.2-0.2-2.5-1.3-2.3-2.7c0.7-6.1,3.4-11.5,6.7-16.5
		c2.2-3.3,4.5-6.6,6.8-9.9c-0.2-5.1-2.3-10.5,1.4-15c2.7-3.2,5.3-6.7,10-8.6c0.5,2,0.9,3.7,1.4,5.6c2.2-0.6,4.4-1.3,6.6-1.9
		c3.3,2.6-0.1,5.8,1.2,8.8c1.4,0.4,3.1,0.9,5.1,1.5c-1.1,5.5-5.2,8-9.2,10.5c-4.5,2.8-9.5,0.6-14.7,1.9
		C256.3,184.4,254.6,186.6,252.4,189.7z M259,176.2c5.6-4.6,6.9-8.1,5.7-14.6C259.7,165.1,256.4,169.2,259,176.2z M261.2,178.7
		c8.3,1.1,12.1-0.5,16-6.9C271,172.7,265.6,174,261.2,178.7z M274.1,163.5c-2.4,0.7-3.9,1.2-5.3,1.6c-0.6,2-1,3.7-1.7,6.2
		c2.3-0.9,3.9-1.5,5.6-2.1C273.1,167.6,273.4,166.2,274.1,163.5z"/>
	<path class="st0" d="M65.3,179.9c2.1,3.1,4.4,6.2,6.5,9.4c3.3,5,6.1,10.3,6.8,16.5c0.2,1.4,0.2,1.4-1.7,3.6
		c-1.9-5.1-1.8-10.8-5.6-15c-6.9-3.5-12.8-2.6-16.8,2.6c-2.2,2.8-2.8,6.1-2.2,9.4c0.7,4.4,3.9,6,8.9,4.3c-1.8-1.8-4.3-3.1-3.8-5.9
		c0.3-2,1.6-3.2,3.7-3.5c4,1.5,5.1,2.8,4.8,5.8c-0.3,3.5-2.8,6.6-5.9,7.2c-4.6,1-9-1.8-10.4-6.5c-2.3-8.2,3.3-16.9,11.8-18.1
		c2.1-0.3,4.2,0,7.2,0c-2-2.9-3.7-5.2-5.5-7.8c-10.4,1.3-19.1-0.8-23.9-11.7c2-0.6,3.7-1.1,5.4-1.6c1.5-2.7-1.7-5.9,1-8.8
		c2.1,0.6,4.3,1.2,6.9,1.9c0.4-1.7,0.7-3.3,1.1-5.2c4-0.1,5.3,3.4,7.6,5.2c2.6,2,4.4,4.7,4.7,8C66.1,172.9,65.6,176.1,65.3,179.9z
		 M62,176c2-6.8,0.4-10.6-5.9-14.2C55.5,167.6,56.7,172.6,62,176z M44.4,172.6c3.8,5.3,8.6,7.8,15.8,6
		C55.4,174.4,50.4,172.3,44.4,172.6z M54.2,171.4c-0.9-2.8-1.4-4.5-2-6.2c-1.6-0.6-3-1.8-5-0.6c0.4,1.6,0.9,3.1,1.3,4.7
		C50.3,169.9,51.8,170.5,54.2,171.4z"/>
	<path class="st0" d="M16,92c-1-2.8-1.9-5.6-2.8-8.2c0.9-3.6,0.9-3.6,2.6-5.2c1.9,0.7,1.7,2.5,1.3,3.8c-1.6,4.4,0.2,7.8,2.7,11.1
		c3.5,4.5,7.1,8.8,10.7,13.2c4,5,7.3,10.3,9.6,16.3c3,7.9,4.3,16,1.3,24.3c-0.4,1.1-0.8,2.2-1.4,3.2c-0.2,0.4-0.7,0.7-1.6,1.5
		c0.2-1.4,0.2-2.2,0.3-3c0.5-2.8,1.3-5.5,1.5-8.3c0.3-4.2-0.4-8.1-5.6-10.1c1.6-0.8,2.5-1.2,3.6-1.7c-1.1-3.1-3.2-4.9-6.6-5
		c-2.2-0.1-4.3-0.2-6-1.9c-0.9-4.8-0.7-5,5-6.9c-1.8-4.6-5.8-5.8-10-6.8c0.1-1.1,0.1-2,0.2-3c-2.3,0.3-4.4,0.5-6.9,0.8
		c-1-1.5-2-2.9-2.7-3.9c0.9-3.6,3.7-4.3,6-5.8c-2.6-2.7-5.9-3.8-9-5.3c-2.8-1.4-6.4-1.7-8-5c1.6-1.5,2.9-0.9,4.3-0.3
		C8.2,87.7,12.2,89.8,16,92c0.2,0,0.3,0.1,0.4,0.2C16.3,92.2,16.1,92.1,16,92z"/>
	<path class="st0" d="M225,255.1c-6.9,2.3-15.2,2.8-16.2,12.7c-0.6-0.3-1.1-0.4-1.4-0.7c-0.4-0.3-0.7-0.7-1-1
		c-2.6,2.6-3.4,1.1-0.1,13.3c-1.3,0.9-2.7,2-4.3,3.2c-1.9-1.4-3.3-2.4-4.7-3.5c-2.5,4.2-2.7,5.6-1.4,11.7c-0.7,0.3-1.4,0.5-2.5,0.9
		c1.2,2.1,2.4,4.2,3.7,6.5c-0.8,1.2-1.5,2.5-2.1,3.4c-3.3,1.1-5.3-0.5-7.6-2.2c-0.8,2-1,3.8-0.8,5.7c0.3,3.3,0.4,6.6,0.5,10
		c0.1,1.7,0.1,3.4-2.4,3.9c-2.7-5.3-1.3-10.9-0.8-16.8c-6.6,7.2-7.2,7.5-11.7,6.4c-0.1-2.3,1.6-2.9,3.2-3c3.6-0.4,5.7-2.7,7.1-5.6
		c1.6-3.1,2.9-6.3,4.2-9.6c3.3-8.4,7.2-16.4,13.2-23.3c4.1-4.8,9.1-8.3,14.8-10.8C218,254.8,221.4,254.3,225,255.1z"/>
	<path class="st0" d="M150.1,309.5c-6,1.5-8.5-2.9-11.7-6.6c-0.5,6,1.1,11.7-1.1,16.9c-0.5,0-1,0-1.5,0c-0.3-1-1-2-1-2.9
		c0-3.3,0.3-6.7,0.4-10c0.1-2.1,0-4.2,0-6.6c-2.7,1.1-4.9,1.9-7.5,2.9c-1.2-1.5-2.1-2.7-3.2-4.1c1.4-2.4,2.7-4.6,3.9-6.7
		c-0.8-0.3-1.6-0.6-2.5-1c1.2-4.3,1.4-8.3-1.2-12.1c-1.5,1.2-3,2.4-4.9,3.9c-1.5-1.1-2.9-2.2-4.3-3.2c0.9-4.8,5.1-9.3,0.1-13.7
		c-0.7,0.8-1.4,1.5-2,2.1c-0.4-0.4-0.7-0.5-0.8-0.8c-1.6-6.2-5.6-9.8-12.1-10.7c-1.5-0.2-3.3,0.2-5-1.4c2.5-1.1,4.6-0.6,6.6-0.1
		c8.6,2,15.4,6.9,20.8,13.7c5.2,6.6,8.8,14.1,11.9,21.8c1,2.6,1.9,5.4,3.2,7.9c1.8,3.4,3.8,6.7,8.3,7.1
		C148.3,306.3,149.5,307.1,150.1,309.5z"/>
	<path class="st0" d="M172.3,42.9c2-0.5,3.2-0.7,4.2-1c0.4-1.1,0.6-1.9,0.9-2.7c0.2,0,0.5,0,0.7,0c0.2,0.8,0.4,1.7,0.6,2.7
		c1.1,0.5,2.3,1.1,3.8,1.8c-1.3,3.4-4.3,4.8-6.7,5.9c-4.7,2-9.7,3.4-15,1.6c-1.6-0.5-3.6,0-5.3,0.4c-5.2,1.1-13.9-2-17-6.3
		c-0.3-0.5-0.3-1.2-0.6-2.2c3.2-0.2,6-0.4,9.1-0.6c-1.3-4.1-5.6-6.6-4.8-11.4c4.3-1.1,7.8,0.6,11.3,2.5c2.1-5,2.7-10.5,6.8-14.8
		c3.6,4.3,4.6,9.5,6.5,14.5c2.6-2.6,5.3-4.7,9.5-3.1C177.5,35,174.1,38.3,172.3,42.9z M156.3,36.4c1.2,1.2,2.5,2.4,3.8,3.7
		c1.5-1.9,2.6-3.3,3.7-4.7c0.6-4.6-1.2-8.4-3.5-12.2C157.6,26.9,156.3,31.1,156.3,36.4z M144.2,33.2c2.4,4.7,4.1,9.1,9.4,10.5
		c0-2.4,0-4.5,0-6.6C151.1,34.4,148.5,32.8,144.2,33.2z M165.7,44.4c5.4-3,7.5-7.1,9-12.6c-4,1-6.1,3.3-8.1,5.7
		C166.3,39.7,166,41.6,165.7,44.4z M149.6,49.9c1.7-0.1,3.4-0.2,5.1-0.3c-3.8-2.6-7.2-6-12.5-4.1C144.7,47,146.9,48.3,149.6,49.9z
		 M177.7,45.2c-4.5-0.3-8.4-0.3-12.2,3.2C170.4,49.1,174.1,48.3,177.7,45.2z M156.4,39.8c-0.3,2.9,0.1,4.7,1.9,6.4
		C159.4,43.6,158,42.2,156.4,39.8z M161.4,45.5c0.4,0.1,0.8,0.2,1.2,0.3c0.5-1.7,0.9-3.4,1.4-5C161.8,41.9,161,43.5,161.4,45.5z"/>
	<path class="st0" d="M305,93c2.7-1.5,5.4-3.2,8.2-4.6c1.9-1,3.9-1.6,5.7-2.3c1.7,1.2,1.5,2.3,0.4,3.1c-1.2,0.8-2.7,1.3-4,2
		c-3.7,1.8-7.5,3.5-11.7,5.5c2.1,1.7,3.7,3,5.2,4.2c1,2.7,0.3,4.5-2.2,5.8c-1.8-0.1-3.7-0.3-6-0.5c0,0.9,0,1.6,0,2.6
		c-3.8,1-7.7,2.1-9.8,6.5c1.1,0.6,2.3,1.1,3.3,1.7c1.4,0.8,2.5,2.1,1.8,3.7c-0.5,1.2-1.7,2.3-2.9,3.1c-0.6,0.4-1.6,0.3-2.4,0.2
		c-3.6-0.2-6,1.5-7.6,5c0.9,0.5,1.9,0.9,2.9,1.5c-0.3,0.5-0.5,1-0.9,1.2c-3,1.7-4.1,4.4-3.9,7.5c0.2,3.1,0.8,6.2,1.2,9.3
		c0.1,0.9,0.5,1.8,0.4,2.8c-3.2-2.7-3.6-6.4-3.9-10.1c-1.1-10.8,2.6-20.4,8.6-29c3.6-5.2,7.8-10,11.8-14.9c2.5-3.1,5-6.3,5.5-10.4
		c-1.1-4.4-1.1-4.4,0.5-7.1c2.9,2.5,2.1,5.6,1.5,8.6C306.4,90,305.7,91.5,305,93c-0.1,0.2-0.3,0.3-0.3,0.3
		C304.8,93.3,304.9,93.1,305,93z"/>
	<path class="st0" d="M52.7,50.3c4.9-3.2,10.2-1.5,15.4-2.4c0-1,0-2.1,0-3.4c2.8-1.2,5.3-0.7,7.9,0.7c2.3,1.2,4.4,2.9,7.6,3
		c-0.2-1.5-0.4-2.6-0.6-3.7c2.2-1.4,4.1-0.4,5.9,0.3c4.1,1.5,8,3.3,12.2,4.4c2.8,0.8,5.9,0.8,8.8,0.8c5.2-0.2,10.7-7.6,8.2-13.4
		c-2.6-6-9.9-8.3-14.9-4.4c-1.5,1.2-2.7,2.5-1.2,5.1c1.7-1,3.3-2,5-3c3.1-0.1,5,1.4,5.7,4.4c-0.1,3.4-1.6,5.6-5.2,6.1
		c-5.1-0.6-7.6-3.6-8.3-8.5c1.5-6.3,6.3-9,12.9-7c4.2,1.3,7.2,4.3,8,8.8c0.8,4.7-0.2,9-4.2,12c-3.9,3-8.5,4.1-13.2,3.8
		c-6.8-0.4-13.5-1.2-20.3-2.2c-8.4-1.2-16.8-1.9-25.2-0.2C55.8,51.7,54.4,52.4,52.7,50.3z"/>
	<path class="st0" d="M240,46.1c-0.3,1-0.6,2.2-1,3.8c5.7-0.7,9.7-6.4,15.9-3.9c-0.2,0.9-0.3,1.5-0.4,2c-0.1,0.5-0.1,1-0.2,1.5
		c4.8,1.6,10.3-1.3,15,2.7c-2.1,1.6-4.1,1-5.9,0.7c-8.8-1.6-17.6-0.7-26.3,0.7c-6.1,1-12.2,1.9-18.3,1.3c-3.2-0.3-6.6-1.2-9.5-2.7
		c-7.9-4.3-8.7-14.6-1.8-20.1c3.9-3.1,10.1-3.1,13.9,0c2.4,2,3.1,5.9,1.5,9.2c-1.4,2.9-4.9,4.9-7.7,4.5c-2.5-0.4-3.8-1.6-4.4-4.1
		c-0.6-2.6,0.2-4.5,2.6-5.8c0.6-0.3,1.2-0.4,2.1-0.7c1.7,0.9,3.4,1.9,5,2.9c1.6-0.5,1.7-1.5,0.9-2.7c-1.8-2.8-5.6-4.5-8.6-3.9
		c-3.9,0.8-7.3,4.5-7.8,8.2c-0.7,5.8,3.3,11.1,9.2,11.4c3.6,0.2,7.3-0.5,10.8-1.4c3.7-1,7.2-2.7,10.7-4
		C237.1,45,238.5,44.4,240,46.1z"/>
	<path class="st0" d="M156.3,238.5c4.4,1.3,9.9-2.7,12.8,3.5c-0.2,0.9-0.4,2-0.7,3.4c0.4,0.8,1,2,1.5,2.9c-0.2,2.3-1.1,3.9-3,4.5
		c-1.7,0.5-3.5,0.6-5.3,0.7c-1.6,0.1-3.2-0.2-5.2-0.4C157.2,248.6,158.4,243.6,156.3,238.5z M162.3,251.7c2.5-0.4,3.6-1.2,3.1-3.1
		c-0.4-1.5-1.4-2.1-3.1-1.3C162.3,248.6,162.3,250,162.3,251.7z M162.9,240c-1.3,1.6-1.3,2.9-0.2,4.1
		C165.3,242.4,165.3,242.4,162.9,240z"/>
	<path class="st0" d="M176.3,225.5c0.6,0.9,1.2,1.9,1.8,2.8c0.9,0,1.6,0.1,2.5,0.1c-0.1,0.7,0,1.3-0.2,1.6c-2.4,2.5-4.2,2.4-6-0.3
		c-0.8-1.2-1.4-2.5-2.2-3.7c-2.7,1.8-0.1,3.4-0.3,5.3c-2,0.1-4,0.2-6.4,0.4c0.5-4.8,1.8-9.6-0.5-14.5c1-0.3,1.9-0.9,2.4-0.6
		c1.4,0.8,2.7,0.8,4.2,0.2c2.3-0.9,4.3,0.1,5.7,2c1.4,2,1.4,4-0.4,5.9C176.6,224.8,176.5,225.1,176.3,225.5z M173.4,219.3
		c-2.6,1-2.6,1-1.6,4.6C174.1,222.8,174.6,221.4,173.4,219.3z"/>
	<path class="st0" d="M129.9,151.7c3.1-0.3,5.5-0.6,7.9-0.6c2.1-0.1,3.9,0.9,4.9,2.8c1.2,2.3,0.3,4.1-1.7,6.2
		c1.4,1.3,2.7,2.6,4.1,3.8c-1.6,2.8-4,3.2-5.7,0.7c-0.9-1.3-1.6-2.8-2.4-4.4c-2.8,2.1,0.3,3.7-0.2,5.7c-1.9,0.2-4,0.4-6.5,0.6
		C131.1,161.4,132.1,156.6,129.9,151.7z M136.5,158c3.2-1.3,3.3-1.6,1-4.4C135.4,154.6,135.9,156.2,136.5,158z"/>
	<path class="st0" d="M123.9,144c-2.3,0-4.2,0-6.5,0c0.9-4.8,1.7-9.4-0.1-14c1.7-2.2,3.6,0.4,5.5-0.2c1.7-0.5,3.7-0.1,5-0.1
		c3.5,3.2,2.8,5.8,0.3,8.6c1.4,1.3,2.7,2.4,4.3,3.8c0.3,1.2-0.8,2-2.2,2.3c-1.6,0.4-2.9-0.4-3.8-1.7c-0.8-1.3-1.5-2.8-2.3-4.3
		C121.7,140.4,124.1,141.9,123.9,144z M123.7,132c-1,1.6-1.1,2.9-0.2,4.5c2.3-0.8,2.8-2.1,2.1-4.3
		C124.9,132.2,124.3,132.1,123.7,132z"/>
	<path class="st0" d="M132.2,209.4c1.4-5,1.5-9.8-0.3-14.7c2.9,0,5.5-0.1,8.1,0c4.2,0.3,5.5,2.5,4.1,6.7c2.4,6-0.1,9.3-6.4,8.4
		C136.1,209.7,134.4,209.6,132.2,209.4z M138.1,207.5c2.2,0.6,3.1-0.4,3.3-1.8c0.2-1.5-0.6-2.5-2.2-2.5c-0.3,0-0.6,0.2-1.1,0.5
		C138.1,204.8,138.1,206.1,138.1,207.5z M138.3,196.8c0,1.4,0,2.6,0,3.9c2.2-0.4,2.8-1.5,2.2-3.4C139.9,197.2,139.3,197,138.3,196.8
		z"/>
	<path class="st0" d="M93.4,85.9c4.1,0,7.8,0,10.9,0c3.1,3.2,2.7,5.9,0,8.7c1.6,1.2,3.1,2.3,5,3.7c-1,1-2,1.9-2.7,2.6
		c-4.4-0.1-4.1-4.1-6.3-5.9c-2.8,1.8,0.5,3.4,0.1,5.2c-2.1,0.1-4.3,0.2-7,0.3C95.1,95.6,95.8,90.9,93.4,85.9z M103.1,89.6
		c-1-0.9-1.3-1.3-1.7-1.5c-0.4-0.2-0.9,0-1.8,0c0,1.6,0,3,0,5.7C101.2,92,102,90.9,103.1,89.6z"/>
	<path class="st0" d="M87,72.2c-0.7,0.5-1.1,0.8-1.7,1.3c0.6,1.3,1.1,2.6,1.8,4.3c-2.2,0-4.3,0-6.5,0c0.8-4.6,1.2-9.3-0.4-14.2
		c2.6,0,5.1,0,8.8,0c4.7,1.5,5.6,3.8,2.4,8.4c0.6,2.2,1.9,3.6,4.4,3.6c-2.1,3.3-2.1,3.3-5.8,1.7C89,75.7,88,74,87,72.2z M86.3,66
		c0,1.7,0,3.1,0,4.5c2.6-0.3,3.1-1.8,2.6-4.2C88.2,66.2,87.4,66.1,86.3,66z"/>
	<path class="st0" d="M168.1,275.1c1.5-5.2,1.6-9.9,0-14.7c2.4,0,4.8,0,7.1,0c2.4,0,4.6,0.7,5.8,3.4c-0.2,0.8-0.4,1.9-0.7,3.5
		c0.3,0.9,0.9,2.2,1.4,3.4c-1.6,3.8-3.7,5.1-7.2,4.8c-1-0.1-1.9-0.5-2.9-0.6C170.7,274.9,169.7,275.1,168.1,275.1z M178.8,271.1
		c-1.9-1.4-2.8-2.1-4-3.1c-1.1,1.9-1.4,3.4,0.1,5.3C175.9,272.8,176.9,272.2,178.8,271.1z M175.1,261.9c-1.4,1.3-2.1,2.4-0.8,4.4
		c1-0.7,1.9-1.4,3.1-2.2C176.4,263.1,175.8,262.6,175.1,261.9z"/>
	<path class="st0" d="M121.1,155.2c-0.3,0.8-0.6,1.7-0.8,2.3c0.4,2.2,0.7,4.1,1,5.7c-3.9,5.1-8.7,2.5-13.2,2.7c1-5,2-9.8-0.8-14.5
		c3.1-0.1,5.8-0.4,8.5-0.4C118.2,151.1,119.8,152.4,121.1,155.2z M113.6,164.1c3.6-1,3.6-1,2.5-4.5c-0.8,0.2-1.7,0.4-2.7,0.6
		C113.4,161.5,113.5,162.6,113.6,164.1z M114.6,153.1c-1.9,0.8-1.4,2.2-0.8,3.6C116.8,155.9,116.9,155.5,114.6,153.1z"/>
	<path class="st0" d="M141.3,173.6c0.6-0.2,1.2-0.7,1.8-0.6c1.6,0.3,3.1,0.6,4.8,0.1c2.2-0.6,4.3,0,5.7,2c1.2,1.8,1,3.3-0.9,6.3
		c0.3,2.4,1.9,3.6,4.3,3.8c-1.9,2.7-1.9,2.7-5.2,2.6c-1.2-1.7-2.4-3.6-3.7-5.5c-2.5,1.7-0.1,3.2-0.1,5.3c-2.2,0.1-4.3,0.2-6.6,0.3
		C143.3,181.9,143.6,178.6,141.3,173.6z M147.6,179.8c2.1,0.4,2.7-1,2.7-2.2c0-0.7-1.1-1.5-1.7-2.3
		C146.6,176.9,146.9,178.4,147.6,179.8z"/>
	<path class="st0" d="M156.2,228.8c-2.1,2.9-4.6,3.3-7.4,3c-1.7-0.2-3.5-0.3-5.6-0.5c0.9-4.7,1.9-9.6-0.7-14.4
		c2.9-0.2,5.4-0.5,8-0.4c2.2,0.1,4.2,1,5.4,3.6C154.1,222.9,156.9,226,156.2,228.8z M148.8,229.4c3.2-0.3,3.2-0.3,2.8-3.9
		c-0.8-0.1-1.7-0.2-2.8-0.4C148.8,226.7,148.8,228,148.8,229.4z M148.1,218.7c0.6,1.9,0.9,2.9,1.4,4.7c1.1-1.5,1.7-2.5,2.7-3.8
		C150.8,219.3,149.9,219.1,148.1,218.7z"/>
	<path class="st0" d="M280.1,99c-2,1.5-3.1,2.3-3.8,2.8c-4.2-0.3-3.5-4.7-6.1-5.9c-2.4,2,0.5,3.2,0.4,5.2c-2.2,0.1-4.5,0.2-7.1,0.3
		c1.9-4.9,2.4-9.5,0.1-14.5c3.6,0,7.1,0,10.9,0c0.8,1.2,1.7,2.6,2.8,4.1c-0.7,1.4-1.4,2.7-2.1,4C275,97.7,277.3,97.9,280.1,99z
		 M269.4,93.7c3.1-1.4,4-2.7,2.6-4.4c-0.7,0.1-1.5,0.1-2.6,0.2C269.4,91,269.4,92.3,269.4,93.7z"/>
	<path class="st0" d="M177.8,238.6c3.3,0,5.9,0,9.5,0c4.5,2,5.2,3.9,2.1,8.3c1.6,2.6,1.6,2.6,4.3,4c-1.9,2.7-1.9,2.7-5.6,1.8
		c-1-1.5-2-3.1-3-4.8c-2.3,1.8-0.1,3.2-0.2,5c-2.1,0.1-4.3,0.3-6.7,0.5C180.1,248.4,180.6,243.9,177.8,238.6z M184.1,245.8
		c3-0.8,3.5-2.2,2.7-4c-0.2-0.5-1.3-0.5-2.5-1C184.3,242.7,184.2,244.1,184.1,245.8z"/>
	<path class="st0" d="M117.5,123.7c-2.2-2.7-3.8-4.8-5.5-6.8c-2.2,2.1,0.4,3.4,0.7,5.4c-2.6,0-4.7,0-7.3,0c1.9-4.8,2.3-9.5-0.3-14.6
		c2.3,0,4.4,0.3,6.3-0.1c2.2-0.5,3.9,0,5.5,1c2.6,2.7,1.6,5.3-0.4,8.2c1.5,1.1,2.9,2.1,4.7,3.4C120.2,121.1,119.3,122.1,117.5,123.7
		z M115.2,111.4c-1.4-0.7-2.3-1.1-3.7-1.8c0,2.1,0,3.5,0,5c0.3,0.1,0.5,0.2,0.8,0.3C113.2,113.9,114.1,112.9,115.2,111.4z"/>
	<path class="st0" d="M83.4,121.6c0.9-4.6,1.4-9.2-0.3-14.1c2.9-0.2,5.7-0.6,8.5-0.4c2,0.1,3.6,1.5,4.6,3.8c-0.2,0.9-0.5,2-0.9,3.4
		c0.4,0.8,1,2,1.6,3.3c-0.3,0.8-0.5,1.9-1.1,2.6c-1.6,1.9-3.9,2.3-6.3,2.3C87.5,122.5,85.5,122,83.4,121.6z M89,119.9
		c2.4,0.5,3.5-0.2,3.8-1.9c-2-2.3-3.1-2.6-4.3-1.1C88.6,117.7,88.8,118.7,89,119.9z M90.4,108.9c-2,0.8-2.4,2.1-1.4,4.1
		c0.7-0.2,1.5-0.4,2.2-0.7c0.4-0.2,0.5-0.8,0.8-1.4C91.5,110.3,91,109.7,90.4,108.9z"/>
	<path class="st0" d="M71.1,100.2c1.1-5.3,2-9.9-0.5-14.5c1.2-1.4,2.4,0,3.5,0c1.3,0,2.6-0.4,4.2-0.6c2.1,0.4,4.5,1,5.1,2.5
		c0.3,4.2,0.5,7.2,0.7,10.1C80.5,102.1,75.8,99.2,71.1,100.2z M76.8,93.3c0,1.6,0,3,0,4.2c1.9,1.2,3,0.6,3.8-1
		C80.2,94.8,79.6,93.4,76.8,93.3z M77.5,87.2c-1,1.3-1.1,2.5,0.2,3.7C80.5,88.8,80.5,88.7,77.5,87.2z"/>
	<path class="st0" d="M119,172.8c4.9,1.1,10.1-1.9,13.2,3.7c-0.3,1-0.5,2.1-0.8,2.9c0.4,2.1,0.7,3.9,1,5.5
		c-3.8,5.5-8.8,1.9-13.1,3.1C120.3,182.9,120.7,178.2,119,172.8z M128.5,183.4c-0.7-1.9-1.8-2.6-4.2-1.4c0.3,1.3,0.5,2.6,0.8,3.7
		C127.6,186.3,128.2,185.1,128.5,183.4z M128.9,176.8c-1.8-0.9-2.7-1.4-4.1-2.1c0,1.8,0,2.9,0,4.8
		C126.2,178.5,127.1,178,128.9,176.8z"/>
	<path class="st0" d="M249.5,101.7c-3.3-0.3-5.5-0.5-8-0.7c1.9-4.7,2.3-9.4-0.3-14.3c3.3,0,6.5-0.4,9.6,0.1c3.3,0.5,3.8,2.3,2.6,6.5
		C256.7,97.2,254.9,100.9,249.5,101.7z M248,99.9c2.1-1.1,3.4-1.9,2.4-4.3c-0.8-0.2-1.8-0.4-3.1-0.6c-0.1,1.2-0.2,2-0.1,2.8
		C247.2,98.2,247.6,98.8,248,99.9z M247.5,92.4c3.2-1.6,3.2-1.7,0.9-4.2C246.6,89.3,247,90.8,247.5,92.4z"/>
	<path class="st0" d="M154,194.9c3.5,0,6.6-0.2,9.6,0.1c1.2,0.1,2.2,1.2,3,1.6c1.3,2.9,0.9,5-1.2,6.8c0.7,1,1.3,2,1.9,3
		c0.9,0.2,1.7,0.3,2.7,0.5c-2.4,3.6-4.4,3.9-6.4,0.9c-0.8-1.2-1.4-2.5-2.2-3.8c-2.9,2,0.2,3.5,0,5.5c-2.2,0-4.4,0-7,0
		C156.4,204.8,156.5,200.1,154,194.9z M164,199.5c-0.9-1-1.5-1.8-2.2-2.6c-2,1.6-1.8,3.2-1,5.4C162,201.3,162.9,200.5,164,199.5z"/>
	<path class="st0" d="M94.4,129.5c2.8-0.2,5.2-0.4,7.6-0.4c2.7,0,4.8,1.2,6,4c-0.3,0.9-0.6,2-0.8,2.7c0.5,2.1,0.8,3.8,1.2,5.3
		c-3.9,5.2-8.9,2.2-13.6,3.1C96.3,139.1,97.1,134.4,94.4,129.5z M100.5,141.7c2,0.7,3.4,0.2,3.5-1.7c0.1-2.2-1.3-2.6-3.5-2.4
		C100.5,139.1,100.5,140.5,100.5,141.7z M102.6,131.1c-0.9,0.1-1.4,0.2-2.2,0.3c0,1.2,0,2.3,0,3.5
		C103.3,135,103.6,133.7,102.6,131.1z"/>
	<path class="st0" d="M253.4,108.3c4.2,1.5,9.5-2.7,12.8,3.1c-0.2,1-0.4,2.1-0.7,3.7c0.3,0.9,0.8,2.2,1.6,4.2
		c-0.9,1-1.8,2.6-3.1,3.2c-1.4,0.7-3.2,0.6-4.9,0.6c-1.7,0-3.5-0.2-5.5-0.3C254.5,118.1,256.1,113.4,253.4,108.3z M259.3,121
		c2.4-0.1,3.4-0.7,3.3-3c-0.4-0.4-1-1-1.6-1.5c-0.3-0.2-0.9-0.1-1.7-0.2C259.3,117.9,259.3,119.3,259.3,121z M259.3,114.1
		c2.3-0.6,3.3-1.4,1.9-3.4c-0.3-0.4-1-0.4-1.9-0.7C259.3,111.5,259.3,112.7,259.3,114.1z"/>
	<path class="st0" d="M266.4,77.9c-1.4,0.9-2.3,1.5-2.9,1.8c-4.4,0.3-3.9-4.4-6.4-5.7c-2.7,2.1,1,3.5,0.2,5.4c-2,0-4,0-6.4,0
		c1.2-4.7,1.7-9.3,0-14.2c2.4-0.1,4.6-0.3,6.9-0.4c4.9-0.1,6.8,2.9,4.6,7.5c-0.1,0.3-0.3,0.6-0.7,1.5
		C263.1,74.9,264.5,76.2,266.4,77.9z M256.6,67c-0.1,1.9-0.2,3.3-0.2,4.9c2.4-0.3,3.3-1.4,3.4-3.7C258.9,67.9,258,67.5,256.6,67z"/>
	<path class="st0" d="M57.9,78.3c1.1-5.5,2.1-10.1-0.9-15.2c3.5,0,6.7-0.3,9.8,0.1c1.4,0.2,2.7,1.7,4,2.6c-0.4,1.7-0.6,2.9-0.8,3.9
		c0.5,2,0.9,3.7,1.2,5.1C67.8,80.6,62.6,76.7,57.9,78.3z M63.5,75.8c2.3,0.7,3.4,0,3.5-1.9c0.1-2.1-1.1-2.9-3.5-2.4
		C63.5,72.8,63.5,74.2,63.5,75.8z M64,68.9c2.4-1.1,2.4-1.1,1.2-3.7C63.3,66.2,63.3,66.2,64,68.9z"/>
	<path class="st0" d="M204.6,122.7c1.6-7.6,1.6-9.3-0.4-14.4c2.8-0.1,5.5-0.5,8.1-0.3c3.1,0.2,4.6,2.4,5.4,5.1
		c1.8,6-2.3,10.6-8.5,9.6C207.7,122.5,206.2,122.7,204.6,122.7z M210.6,121.4c3.4-2.5,2.5-5.5,2.5-8.1c0-1.5-0.3-3-2.5-3.2
		C209.5,113.7,209.3,117.1,210.6,121.4z"/>
	<path class="st0" d="M229.1,64.8c2.2,0,4.9-0.1,7.5,0c4.1,0.2,5.2,2,4.2,5.5c0.4,2.6,1.2,4.5,0.8,6.2c-0.6,2.6-3.5,2.7-5.1,3.2
		c-2.9-0.2-5.3-0.4-7.6-0.6c0.3-2.3,0.9-4.6,1-7C229.9,69.8,229.4,67.5,229.1,64.8z M234.4,73.2c-0.5,1.9-0.8,3.4,1.7,4.8
		c0.7-0.6,1.5-1.4,1.9-1.8C237.6,73.5,236.7,72.7,234.4,73.2z M233.9,71.3c3.9-2.8,3.9-2.8,0.8-5.2C234.5,67.7,234.3,69,233.9,71.3z
		"/>
	<path class="st0" d="M192.6,100.7c1.9-4.7,2.1-9.4-0.6-14.8c4.1,1.6,7.9-1.2,11.3,1.3c2.8,2.6,3.2,5.8,2.4,9.2
		c-0.8,3.2-2.9,4.9-6,4.8C197.3,101.1,195,100.8,192.6,100.7z M199.1,99.3c3.2-2.9,2.2-6.1,1.8-9.1c-0.1-0.8-1.2-1.4-2.1-2.4
		C197.6,92.7,197.7,95.5,199.1,99.3z"/>
	<path class="st0" d="M179.2,64.5c2.7-0.2,4.7-0.4,6.7-0.5c2.9-0.2,5.1,1.2,6.3,3.9c1.8,4.1,0.9,7.6-3,10.9c-3.1,0-6.2,0-9.5,0
		C181.2,74.1,181.9,69.4,179.2,64.5z M185.8,66c-1.1,3.8-1.2,7.3-0.1,11.1C189.5,73.9,189.5,69.3,185.8,66z"/>
	<path class="st0" d="M228.9,166.5c1.7-5.1,1.7-9.7,0.2-14.6c2.4-0.2,4.7-0.5,7.1-0.5c3.3,0.1,5.6,2.2,6,5.5c0.2,1.5,0.2,3-0.1,4.5
		c-0.7,3.8-3.3,5.5-7.2,5.1C233.1,166.3,231.4,166.5,228.9,166.5z M235,164.6c4.1-3.4,4.1-8.3,0-11.2
		C233.8,157.2,233.8,160.8,235,164.6z"/>
	<path class="st0" d="M142.1,108c-0.4,1.3-0.6,2-0.9,3c2,3.6,4,7.4,6.2,11.5c-2.6,0-4.7,0-7.3,0c0.3-0.9,0.5-1.8,0.9-2.9
		c-2.1-1.2-4.2-1-6.8-0.1c0.7,1.1,1.2,1.9,1.9,3.1c-2.4,0-4.4,0-6.9,0c2.9-4.7,5.9-8.9,5.5-14.5C137,108,139.3,108,142.1,108z
		 M137.5,112.9c-0.5,1.1-0.9,1.8-1.5,3.1c1.3-0.1,2-0.2,3-0.3C138.5,114.6,138.1,114,137.5,112.9z"/>
	<path class="st0" d="M238.8,108.3c-0.3,1.2-0.5,2.2-0.9,3.4c1.9,3.4,3.9,7,6.1,11c-2.3,0-4.3,0-6.8,0c0.2-1,0.3-2,0.5-3.3
		c-2.1,0-4.2,0-6.7,0c0.5,1.1,0.9,2.1,1.5,3.3c-2.2,0-4.2,0-6.2,0c1.9-3.9,3.7-7.5,5.5-11.1c-0.3-1.1-0.5-2-0.9-3.3
		C233.6,108.3,235.9,108.3,238.8,108.3z M233.3,115.5c0.2,0.2,0.4,0.4,0.6,0.5c0.4-0.2,1-0.4,1.1-0.6c0.1-0.4-0.3-0.9-0.7-2
		C233.7,114.6,233.5,115.1,233.3,115.5z"/>
	<path class="st0" d="M178.5,209.6c2-3.9,3.9-7.5,5.6-10.9c-0.3-1.3-0.6-2.2-0.9-3.5c2.5,0,4.9,0,7.7,0c-0.3,1-0.5,1.9-0.8,3.1
		c1.9,3.5,3.9,7.3,6,11.2c-2.4,0-4.6,0-7.1,0c0.3-1,0.6-1.8,1-2.9c-2.2-1-4.4-0.8-6.9-0.2c0.6,1.1,1.1,2,1.7,3.1
		C182.5,209.6,180.5,209.6,178.5,209.6z M186.5,200c-0.5,1.2-0.9,1.9-1.5,3.1c1.2-0.1,1.9-0.1,2.8-0.2
		C187.3,201.9,187,201.2,186.5,200z"/>
	<path class="st0" d="M200.6,132.7c2,3.7,4.1,7.5,6.3,11.6c-2.5,0-4.9,0-7.8,0c0.7-1.1,1.1-1.8,1.7-2.7c-2.1-1.2-4.2-0.9-6.7-0.6
		c0.4,1.3,0.6,2.2,1,3.4c-2,0-3.8,0-6.1,0c2.2-4.7,5.9-8.7,5.6-14.5c2,0,4.2,0,6.9,0C201.2,131,200.9,131.9,200.6,132.7z
		 M198.3,137.5c-0.6-0.9-1.1-1.5-2-2.8c-0.1,1.6-0.1,2.3-0.1,3.3C197,137.7,197.5,137.6,198.3,137.5z"/>
	<path class="st0" d="M96.2,173.2c2.8,0,5,0,7.6,0c-0.2,1-0.4,2.1-0.6,3.2c1.9,3.5,3.9,7.1,6,11.1c-2.4,0-4.5,0-7.1,0
		c0.4-0.9,0.8-1.7,1.2-2.7c-2.3-1.6-4.7-0.6-7.5-0.8c0.8,1.7,1.3,2.6,1.8,3.7c-2.2,0-4.1,0-6,0c1.9-3.9,3.8-7.5,5.5-11.1
		C96.8,175.5,96.6,174.5,96.2,173.2z M100.8,180.9c-0.5-1-0.9-1.7-1.6-3c-0.5,1.4-0.7,2-1.1,3C99.2,180.9,99.8,180.9,100.8,180.9z"
		/>
	<path class="st0" d="M117,195c-0.8,6.1,4,9.7,5.6,14.6c-2.3,0-4.5,0-7.3,0c0.5-1,0.9-1.7,1.4-2.7c-2.1-1.8-4.4-1.1-7.1-0.5
		c0.5,1.1,0.9,1.9,1.4,3c-1.9,0-3.7,0-5.8,0c1.9-4,3.7-7.9,5.5-11.8c-0.5-0.9-0.9-1.6-1.5-2.7C112,195,114.3,195,117,195z
		 M111,203.2c1.6-0.3,2.2-0.4,3.3-0.6c-0.7-1-1.1-1.6-1.7-2.5C112.1,201,111.8,201.7,111,203.2z"/>
	<path class="st0" d="M216,144.2c1.6-4.7,1.2-9.4,0.2-14.2c2.4-0.1,4.7-0.5,6.9-0.2c1.5,0.2,3.3,0.9,4.3,1.9
		c2.6,2.6,2.4,9.1-0.5,11.4c-1.3,1-3.3,1.5-5,1.6C220.2,144.9,218.3,144.5,216,144.2z M222.4,131.6c-1.9,3.3-1.8,8.5,0.3,10.9
		C226,137.9,225.9,134.8,222.4,131.6z"/>
	<path class="st0" d="M85.6,151.4c2.5,0,4.7,0,7.3,0c-0.3,1.1-0.6,1.9-0.9,3c1.9,3.6,4,7.3,6.2,11.4c-2.4,0-4.6,0-7.1,0
		c0.3-1.1,0.5-1.9,0.9-3c-2.2-1.3-4.4-0.5-7.1-0.6c0.7,1.5,1.1,2.5,1.6,3.6c-2,0-4,0-6.3,0C82.9,161,86.4,156.8,85.6,151.4z
		 M86.8,160c1.7-0.6,2.2-0.8,3.1-1.1c-0.5-0.9-0.9-1.7-1.6-2.8C87.8,157.4,87.5,158.2,86.8,160z"/>
	<path class="st0" d="M199.5,231.3c0.6-1.2,1-2,1.6-3.2c-2.5,0-4.6,0-7,0c0.4,1.2,0.6,2.1,1,3.3c-1.9,0-3.7,0-6,0
		c2.3-4.6,6-8.6,5.4-14.4c2.1,0,4.3,0,6.9,0c-0.2,1.1-0.3,2.2-0.5,3.5c1.9,3.4,3.8,7,5.9,10.8C204.5,231.3,202.3,231.3,199.5,231.3z
		 M198.8,224.9c-0.7-1.2-1.1-1.9-1.9-3.5c-0.4,1.7-0.5,2.5-0.7,3.3C197.1,224.8,197.5,224.9,198.8,224.9z"/>
	<path class="st0" d="M135.4,100.5c-2.6,0-4.6,0-7,0c0.2-0.9,0.3-1.9,0.6-3.3c-2.1,0-4.1,0-6.7,0c0.7,1.2,1.2,2.1,1.8,3.2
		c-2.3,0-4.4,0-6.7,0c2.7-4.7,6.1-8.7,5.5-14.3c2.2,0,4.4,0,7.1,0c-0.3,0.9-0.5,1.8-0.8,3C131.1,92.7,133.2,96.5,135.4,100.5z
		 M124,93.8c1.2-0.1,1.9-0.1,3-0.2c-0.6-1.1-1-1.7-1.5-2.7C125,92,124.6,92.6,124,93.8z"/>
	<path class="st0" d="M35.9,77.5c-2,0-3.9,0-5.8,0c2-4,3.8-7.9,5.6-11.6c-0.4-1-0.7-1.9-1-2.8c2.5,0,4.7,0,7.3,0
		c-0.2,1-0.3,2.1-0.5,3.1c2.1,3.7,4.2,7.4,6.3,11.4c-2.4,0-4.7,0-7.4,0c0.4-0.9,0.8-1.8,1.3-2.9c-2.1-1.6-4.3-0.6-6.9-0.9
		C35.3,75.5,35.6,76.4,35.9,77.5z M36.2,70.9c1.2-0.1,2-0.2,3.3-0.4c-0.8-1-1.3-1.6-1.9-2.5C37.1,69.1,36.8,69.8,36.2,70.9z"/>
	<path class="st0" d="M157.3,75.8c0.7,1.1,1.2,1.9,1.9,3c-2.5,0-4.5,0-6.9,0c3-4.6,6.2-8.8,5.3-14.4c2.3,0,4.7,0,7.3,0
		c-0.2,1-0.5,1.9-0.7,3c1.9,3.6,4,7.3,6.2,11.3c-2.3,0-4.6,0-7.4,0c0.6-1,1.1-1.7,1.5-2.5C161.7,74.7,161.7,74.7,157.3,75.8z
		 M159.2,72.5c1,0,1.7,0.1,2.9,0.1c-0.6-1.3-1-2.2-1.6-3.6C160,70.4,159.7,71.3,159.2,72.5z"/>
	<path class="st0" d="M170.5,173.4c2.2,0,4.4,0,7,0c-0.1,0.9-0.3,1.9-0.5,3.5c1.8,3.2,3.8,6.8,6.2,11c-1.4,0-2.4,0-3.5,0
		c-1.1,0-2.3,0-3.6,0c0.3-1.1,0.5-2,0.8-3.1c-2.1-1.2-4.1-0.6-6.7-0.5c0.6,1.3,1,2.3,1.5,3.5c-2.1,0-4.1,0-6.3,0
		C167.7,183.2,171.3,179.1,170.5,173.4z M172.8,178c-0.4,1.9-0.5,2.6-0.7,3.7c1.1-0.1,1.8-0.2,2.9-0.4
		C174.4,180.3,173.9,179.6,172.8,178z"/>
	<path class="st0" d="M72.6,128.9c1.3,0.3,2.5,0.7,3.6,0.7c1.1,0,2.1-0.4,3.6-0.6c-0.3,1.5-0.6,2.6-0.9,3.8c2,3.6,4,7.1,6.2,11
		c-2.6,0-4.9,0-7.6,0c0.5-0.9,1-1.7,1.6-2.7c-2.1-1.6-4.3-0.7-6.9-0.9c0.3,1.4,0.6,2.4,0.9,3.6c-1.9,0-3.7,0-6,0
		C69.9,139,73.1,134.7,72.6,128.9z M75.6,134.7c-0.6,0.1-0.9,0.2-1.5,0.3c0.2,0.9,0.5,1.7,0.7,2.6c0.3-0.1,0.6-0.1,0.9-0.2
		C75.7,136.6,75.7,135.7,75.6,134.7z"/>
	<path class="st0" d="M207,163.5c0.5,0.8,1,1.5,1.8,2.7c-2.3,0-4.2,0-6.5,0c2-4.8,6.3-8.7,5.1-14.5c2.4,0,4.6,0,7.1,0
		c0,0.5,0.2,0.9,0.1,1.3c-0.1,0.4-0.5,0.8-1,1.5c2,3.6,4.1,7.4,6.3,11.4c-2.2,1.4-4.7-0.2-7.8,0.9c1-1.6,1.4-2.3,2.3-3.7
		c-2.5-0.3-4.7-0.5-6.8-0.7C207.3,162.7,207.1,163.1,207,163.5z M210.5,157.2c-0.3,0-0.6,0.1-0.9,0.1c-0.2,0.7-0.3,1.4-0.6,2.5
		c1.1-0.1,1.8-0.2,2.6-0.3C211.1,158.6,210.8,157.9,210.5,157.2z"/>
	<path class="st0" d="M164.9,282.5c-0.3,1-0.5,2.1-0.8,3.4c1.9,3.5,4,7.2,6.3,11.4c-2.5,0-4.7,0-7.2,0c0.3-1.2,0.6-2.3,1-3.8
		c-2.4,0-4.5,0-7.1,0c0.5,1.3,1,2.4,1.6,3.8c-2.1,0-4.1,0-6.1,0c1.9-3.9,3.8-7.6,5.5-11.1c-0.3-1.3-0.5-2.2-0.7-3.1
		c0-0.1,0.2-0.3,0.3-0.5C159.9,282.5,162.2,282.5,164.9,282.5z M159.1,290.9c1.2-0.2,1.8-0.3,2.8-0.4c-0.6-1-1-1.6-1.7-2.8
		C159.7,289,159.5,289.7,159.1,290.9z"/>
	<path class="st0" d="M284.5,79.5c0.9-1,1.4-1.6,1.9-2.2c-1.9-2.7-4.6-0.5-7.2-0.8c0.5,0.8,0.9,1.7,1.7,3c-2.3,0-4.3,0-6.6,0
		c2.4-4.6,6.2-8.5,5.2-14.2c2.3,0,4.5,0,7.2,0c-0.2,0.8-0.4,1.7-0.8,2.9c1.9,3.5,3.9,7.3,6.2,11.4C289.9,79.5,287.7,79.5,284.5,79.5
		z M284,73.1c-0.6-1.2-1-1.9-1.5-3.1c-0.6,1.1-0.9,1.8-1.4,2.8C282.1,72.9,282.8,73,284,73.1z"/>
	<path class="st0" d="M151.3,144.3c0.7-1.1,1.1-1.9,1.6-2.8c-2.2-1.4-4.3-1.5-7-0.6c0.6,1.2,1.2,2.2,1.8,3.5c-2.3,0-4.4,0-6.6,0
		c2-3.9,3.9-7.6,5.8-11.3c-0.3-1.2-0.5-2.2-0.8-3.4c2.7,0,5,0,7.9,0c-0.6,1.2-0.9,2-1.3,2.9c2.1,3.8,4.2,7.7,6.4,11.8
		C156.5,144.3,154.3,144.3,151.3,144.3z M150.8,137.7c-0.6-1.1-1.1-1.8-2-3.4c-0.3,1.8-0.4,2.5-0.5,3.4
		C149.1,137.7,149.6,137.7,150.8,137.7z"/>
	<path class="st0" d="M172,166.1c-2.6,0-4.7,0-7.2,0c0.4-0.9,0.7-1.6,1.1-2.6c-2-2.3-4.3-1-7.3-0.9c1,1.6,1.5,2.5,2.2,3.6
		c-2.4,0-4.4,0-6.8,0c2.5-4.8,6.1-8.8,5.4-14.7c2.2,0,4.5,0,7.3,0c-0.2,1-0.4,2-0.7,3.4C167.8,158.3,169.8,162,172,166.1z
		 M161.9,156.6c-0.4,1.4-0.7,2-1,3.1c1,0.1,1.8,0.1,2.9,0.2C163.2,158.7,162.7,157.9,161.9,156.6z"/>
	<path class="st0" d="M189.3,111.4c1.9,3.5,3.9,7.2,6.1,11.2c-2.5,0-4.7,0-7.4,0c0.5-0.9,0.9-1.7,1.4-2.6c-2.1-2-4.5-0.7-7.5-1
		c1,1.6,1.5,2.4,2.3,3.7c-2.5,0-4.5,0-6.6,0c2.1-4,4-7.9,5.9-11.5c-0.4-1.2-0.7-2.1-1-3c2.6,0,4.8,0,7.4,0
		C189.8,109.3,189.5,110.3,189.3,111.4z M184.2,116.1c1.2-0.2,1.9-0.3,3-0.4c-0.7-1-1.1-1.7-1.7-2.6
		C185.1,114.2,184.8,114.9,184.2,116.1z"/>
	<path class="st0" d="M61.1,110.7c-0.4-1.3-0.6-2.2-0.9-3.2c0.5-0.2,1-0.5,1.4-0.5c1.9,0.1,3.8,0.3,6.1,0.5
		c-0.2,0.8-0.4,1.8-0.7,3.2c1.9,3.4,4,7.1,6.2,11.1c-2.5,0-4.7,0-7.3,0c0.4-1.1,0.7-2.1,1.1-3.4c-2.4,0-4.5,0-7.1,0
		c0.6,1.3,1.1,2.3,1.7,3.5c-2.1,0-4.2,0-6.2,0C57.4,118,59.3,114.2,61.1,110.7z M63.4,112.1c-0.6,1.4-0.9,2.2-1.4,3.4
		c1.2,0,1.9,0,3,0C64.4,114.3,64,113.5,63.4,112.1z"/>
	<path class="st0" d="M48.6,85.4c2.2,0,4.4,0,7,0c-0.2,1-0.4,2-0.6,3.4c1.9,3.4,3.9,7,6.2,10.9c-2.3,0.1-4.4,0.2-7.1,0.3
		c0.2-1.1,0.5-2.1,0.7-3.3c-2.2-1-4.4-0.7-7-0.4c0.7,1.4,1.2,2.3,1.8,3.4c-2.4,0-4.4,0-6.7,0C46,95.2,49,90.9,48.6,85.4z M53,93.5
		c-0.6-1.2-1.1-2.1-1.9-3.8c-0.5,1.8-0.7,2.7-1,3.8C51.1,93.5,51.9,93.5,53,93.5z"/>
	<path class="st0" d="M127.2,220.1c2,3.7,4,7.3,6.2,11.3c-2.5,0-4.6,0-7,0c0-0.3-0.1-0.7,0.1-1.1c0.2-0.4,0.6-0.7,1-1.2
		c-2.2-2.1-4.5-1.4-7.2-0.7c0.6,1.1,1,1.9,1.6,3c-2,0-3.9,0-5.8,0c1.8-4,3.6-7.8,5.3-11.6c-0.4-1-0.8-1.8-1.3-3.1
		c2.8-0.2,5.3,1,8.3-0.8C127.9,217.9,127.6,218.7,127.2,220.1z M125.3,224.7c-0.7-1-1.1-1.7-1.9-2.7c-0.5,1.2-0.7,1.9-1.1,3
		C123.4,224.9,124.1,224.8,125.3,224.7z"/>
	<path class="st0" d="M247.6,144.5c0.9-1.1,1.4-1.7,2-2.4c-2.1-2-4.6-0.9-7.5-0.9c0.8,1.3,1.3,2.2,2,3.4c-2.3,0-4.2,0-6.4,0
		c2-4.8,6.2-8.5,5.1-14.4c2.1,0,4.4,0,7.2,0c-0.3,1-0.5,1.9-0.9,3.1c1.9,3.5,3.9,7.2,6.1,11.3C252.8,144.5,250.7,144.5,247.6,144.5z
		 M245.5,135.1c-0.5,1-0.8,1.8-1.4,3.1c1.3-0.3,2-0.4,3-0.6C246.5,136.6,246.1,136,245.5,135.1z"/>
	<path class="st0" d="M109.1,75.1c0.7,1.3,1.2,2.2,1.8,3.2c-2.4,0-4.4,0-6.9,0c3.2-4.6,6.2-8.6,5.8-14.3c2.1,0,4.4,0,7.1,0
		c-0.3,1-0.5,1.9-0.8,3c1.9,3.5,4,7.3,6.2,11.3c-2.5,0-4.7,0-7.1,0c0.2-0.9,0.5-1.8,0.7-2.8C114.1,73.9,112,74,109.1,75.1z
		 M110.9,71.8c1.2-0.1,2-0.1,3-0.2c-0.6-1.1-1-1.7-1.6-2.8C111.8,70,111.5,70.7,110.9,71.8z"/>
	<path class="st0" d="M166,100.7c2.1-4.8,6-8.7,5.1-14.4c2.1,0,4.3,0,7,0c-0.2,0.9-0.4,1.8-0.7,3c1.9,3.5,4,7.4,6.2,11.4
		c-2.5,0-4.7,0-7.4,0c0.5-1,0.9-1.9,1.3-2.9c-2.2-1.3-4.4-0.8-7-0.4c0.6,1.3,1,2.2,1.5,3.3C169.9,100.7,168.1,100.7,166,100.7z
		 M172.5,94.8c1.1-0.3,1.8-0.4,2.9-0.7c-0.7-1.1-1.2-1.8-1.9-3C173.1,92.5,172.9,93.4,172.5,94.8z"/>
	<path class="st0" d="M133.8,238.6c2.4,0,4.6,0,7.3,0c-0.2,1-0.4,2-0.7,3.3c2,3.5,4.1,7.2,6.4,11.3c-2.5,0-4.8,0-7.6,0
		c0.5-1,0.9-1.9,1.3-2.8c-2.9-1.2-2.9-1.2-6.9-0.3c0.4,0.9,0.7,1.7,1.2,2.9c-1.9,0.2-3.7,0.3-6.2,0.6
		C131.4,248.5,134.8,244.3,133.8,238.6z M135.3,246.7c0.9,0.1,1.6,0.1,2.9,0.2c-0.6-1.4-1-2.3-1.6-3.6
		C136.1,244.6,135.7,245.5,135.3,246.7z"/>
	<path class="st0" d="M145.7,260.5c2.4,0,4.6,0,7.2,0c-0.2,1-0.3,2-0.6,3.3c1.9,3.4,3.9,7.1,6.1,11c-2.3,0-4.6,0-7.1,0
		c0.4-0.9,0.8-1.7,1.2-2.5c-2.9-1.2-2.9-1.2-7-0.5c0.4,1,0.7,2,1.1,3.1c-2,0-3.9,0-6,0C143.4,270.3,146.7,266.2,145.7,260.5z
		 M150.2,268.6c-0.6-1.2-1-2.1-1.7-3.3c-0.5,1.4-0.8,2.3-1.2,3.3C148.3,268.6,149,268.6,150.2,268.6z"/>
	<path class="st0" d="M226.9,86.8c-0.3,1-0.5,1.9-0.9,3.1c1.9,3.4,3.8,7,6,11c-2.4,0-4.6,0-7.1,0c0.4-0.9,0.8-1.8,1.3-2.9
		c-2.3-1.3-4.5-0.9-7.1-0.3c0.6,1.2,1,2.2,1.6,3.3c-2,0-3.9,0-6.1,0c1.9-3.8,3.8-7.5,5.5-11c-0.3-1.3-0.6-2.2-0.9-3.2
		c0.5-0.2,1-0.6,1.4-0.6C222.5,86.3,224.4,86.5,226.9,86.8z M221.9,91.2c-0.5,1.8-0.6,2.4-0.8,3.3c1,0,1.7,0,2.7,0
		C223.2,93.6,222.9,92.9,221.9,91.2z"/>
	<path class="st0" d="M212.3,79c0.2-1.2,0.4-2.1,0.6-3.4c-2.3,0-4.4,0-6.8,0c0.5,1.2,1,2.2,1.5,3.4c-2,0-4,0-6.2,0
		c2.4-4.6,6.1-8.4,5.1-14.3c2.3,0.1,4.5,0.2,7.2,0.3c-0.2,0.9-0.4,1.7-0.7,2.9c1.9,3.5,3.9,7.3,6.2,11.4
		C216.9,79.2,214.8,79.1,212.3,79z M209.2,69.6c-0.5,1.3-0.7,2.1-1.2,3.3c1.3-0.2,1.9-0.3,2.9-0.5C210.3,71.5,209.9,70.8,209.2,69.6
		z"/>
	<path class="st0" d="M225,173c-0.4,1.5-0.7,2.4-1,3.6c1.7,3.6,3.5,7.2,5.4,11.1c-1.8,0-3.7,0-5.9,0c0.5-1,0.9-1.9,1.5-3
		c-2.2-1.3-4.3-0.6-6.8-0.7c0.3,1.4,0.5,2.4,0.8,3.7c-1.8,0.1-3.5,0.2-5.6,0.3c2.3-4.9,6.2-8.9,5.1-14.7
		C220.3,173.2,222.4,173.1,225,173z M223.1,181c-0.6-1.2-1-1.9-1.5-2.9c-0.5,1.2-0.8,1.9-1.2,2.9C221.4,181,221.8,181,223.1,181z"/>
	<path class="st0" d="M142.5,69.1c-1.7-1.1-2.3-3.8-4.9-2.8c-3.6,4.4-3.2,7.4,1.5,10.6c0.7-0.5,1.5-1.1,2.2-1.6
		c0.6-0.4,1.2-0.9,1.8-1.4c1.3,1.9-0.1,2.7-0.9,3.6c-1.3,1.5-3.1,1.8-5,1.6c-3.7-0.4-6.7-4.3-6.1-8.3c0.6-4.6,2.6-8.4,11.5-6.3
		C143.6,65.8,143.5,67.3,142.5,69.1z"/>
	<path class="st0" d="M156.9,96c-1.7,4.5-4.3,6-8,4.9c-3.5-1.1-5.6-5.3-4.6-9.3c1.2-4.9,4.4-6.2,11.6-4.8c0,1.4,0,2.7,0,4.1
		c-0.3,0.2-0.6,0.4-0.9,0.6c-0.7-1.3-1.4-2.7-1.8-3.6c-5.5,1.9-6,6-2.4,10.7C153.6,99.7,154.2,96.1,156.9,96z"/>
	<path class="st0" d="M187.5,166.7c-5.7-1.7-7.8-5-6.5-10.3c1.1-4.4,4.4-5.7,11.6-4.2c0,1.3,0,2.7,0,4.3c-0.7-0.2-1.2-0.2-1.5-0.5
		c-0.9-0.9-1.7-2-2.5-2.9c-4.4,2.4-4.9,5.4-1.9,10.3c2.9,1.8,3.8-1.7,5.7-2.5C193,164.7,192.6,165,187.5,166.7z"/>
	<path class="st0" d="M168.9,117.5c0,3.1-1.6,4.1-3.4,5c-1.9,0.9-3.9,0.8-5.7-0.3c-2.8-1.6-4.4-5.4-3.5-8.6c1.1-4.1,3.4-5.9,7.4-5.8
		c1.3,0.1,2.6,0.3,4.2,0.4c0,1.6,0,3,0,4.5c-0.3,0.2-0.6,0.3-0.8,0.5c-0.8-1.2-1.5-2.5-2-3.2c-3.9-0.2-4.3,2.2-4.6,4.2
		c-0.4,2.6,0.3,4.9,3.3,6.4C165.1,119.8,166.6,118.9,168.9,117.5z"/>
	<path class="st0" d="M204.3,183.5c-0.1,0.7-0.1,1.6-0.4,2.1c-3,4-8.8,3.5-11-1c-1.5-3-1.4-6.1,0.5-8.9c1.7-2.5,4.2-3,7-2.5
		c1.1,0.2,2.2,0.3,3.4,0.4c0,1.5,0,2.9,0,5.1c-1.7-1.6-2.8-2.6-4-3.7c-3.1,0.6-3.7,2.7-3.7,5.2c0,2.6,0.2,5,3.7,5.8
		c1.1-0.9,2.3-1.9,3.6-2.9C203.7,183.2,204,183.4,204.3,183.5z"/>
	<path class="st0" d="M179.7,139.3c0.2,3.7-0.4,4.3-5.7,5.6c-5.4-2-7.3-5-5.8-10.2c1.2-4.4,3.7-6.1,11.6-4.3c0,1.3,0,2.7,0,4.3
		c-0.7-0.2-1.2-0.2-1.5-0.5c-1-1-1.9-2.1-2.8-3.1c-3.9,3.1-4.2,5.2-2,10.2C176.3,143.6,177.6,140.4,179.7,139.3z"/>
	<path class="st0" d="M212.7,207.9c0.6-0.4,1.3-0.7,2-1.2c0.6-0.5,1.2-1.1,2.5-2.4c-0.4,1.9-0.3,2.9-0.8,3.5c-3.4,3.8-9,2.7-11-2
		c-2.4-5.9,1.5-11.2,7.8-10.8c1,0.1,2,0.2,3.4,0.3c0.1,1.4,0.2,2.8,0.4,4.5c-0.9-0.2-1.5-0.2-1.6-0.5c-1.1-1.6-2.2-3-4.4-1.9
		C208.1,202.3,208.5,205.2,212.7,207.9z"/>
	<path class="st0" d="M158.4,305c1.7,0,3.3,0,4.8,0c2.5,3,2.9,5.1,1.1,7c-1.4,1.5-4.2,1.8-5.9,0.6
		C156.4,311.2,156.3,308.9,158.4,305z"/>
	<path class="st0" d="M238.9,232.2c4.6,1.5,6.5,3.7,6,6.7c-0.5,2.8-3.1,5.1-5.9,5c-2.6,0-5.1-2.1-5.7-4.7
		C232.7,236.2,234.5,233.9,238.9,232.2z M242.2,241.7c1.4-3.3,1.5-5.6-0.8-7.4c-2.4-0.8-4.5-0.7-5.9,1.5c-1.2,2.1-0.9,4.1,1.3,6.2
		C238.5,242,240.3,241.8,242.2,241.7z"/>
	<path class="st0" d="M87.9,238.5c-0.6,3.2-2.5,4.8-5.3,5.4c-4.4-1-6.3-2.6-6.4-5.7c-0.1-2.8,1.5-4.6,5.5-6.1
		C85.2,232.6,87.5,234.4,87.9,238.5z M78.3,241.1c4.3,1.5,6.1,1.4,7.2-0.5c1-1.7,1-3.4-0.2-5.1c-1.4-1.9-3-2-7-0.3
		C78.3,237,78.3,239,78.3,241.1z"/>
	<path class="st0" d="M238,228c-2.2-1.2-2.3-3-1.4-5c0.8-1.8,2.8-3.2,4.7-3c2.7,0.3,3.9,2.2,4.6,4.9c-0.7,1.7-0.8,4.1-3.8,4l0.1,0.1
		c1.4-1.9,3.4-3.7,0.8-6.6c-1.2,0-2.7,0-4.7,0C238.2,224.5,238.1,226.3,238,228L238,228z"/>
	<path class="st0" d="M75.3,212.8c0.8-2.2,2.2-3.6,4.4-3.2c2,0.3,2.9,1.9,3.3,3.7c-0.4,2.3-1.7,3.7-4,3.6
		C76.5,216.9,75.5,215.1,75.3,212.8z M80,211.3c-2.3,0.4-3.2,1.3-2.4,3.5c1,0,2,0,3.7,0C80.8,213.3,80.4,212.2,80,211.3z"/>
	<path class="st0" d="M244.2,210c0.6,1.1,1.2,2.1,1.7,2.9c-2.3,5.2-4.3,5.5-7.6,1.3C239.1,209.9,239.1,209.9,244.2,210z
		 M242.4,211.1c-0.5,0.1-1,0.1-1.4,0.2c-0.3,1.1-0.6,2.1-1,3.7c1.8-0.2,2.8-0.4,4.6-0.6C243.6,213,243,212.1,242.4,211.1z"/>
	<path class="st0" d="M77.1,228c-0.7-0.9-1.3-1.7-1.9-2.4c1.4-3.9,1.4-3.9,4.6-5.5c5.6,1.7,6.5,4.1,3.3,8l-0.1-0.1
		c0-1.7-0.1-3.5-0.1-4.9c-2.5-1.4-4.2-1.4-5.9,0.9C77,225.1,77,226.6,77.1,228L77.1,228z"/>
	<path class="st0" d="M138.4,324.7c-3,2.6-3,2.6-5,0.4C135.6,322.6,135.6,322.6,138.4,324.7z"/>
	<path class="st0" d="M22.4,73.6c-1,0.8-1.9,1.6-3,2.6c-0.9-0.8-1.5-1.4-2.2-2C19.5,71.6,19.5,71.6,22.4,73.6z"/>
	<path class="st0" d="M184.6,321.6c2.5,0.5,3.8,0.8,5.3,1.1c-0.7,2.4-1.8,3.2-4.1,3.3C185.5,324.9,185.2,323.9,184.6,321.6z"/>
	<path class="st0" d="M304.9,76.1c-1.3,0.7-2.5,1.5-4.8,2.8c0.2-2.1-0.1-3.4,0.5-3.9C301.9,73.7,303.5,73.7,304.9,76.1z"/>
	<path class="st0" d="M272.1,53.1c1.7-1.6,3.1-1.8,4.6-0.5C274.8,55.8,274.6,55.8,272.1,53.1z"/>
	<path class="st0" d="M49.4,51.6c-2.6,2.9-2.6,2.9-4.9,0.8C45.6,50.3,47.2,50.5,49.4,51.6z"/>
	<path class="st0" d="M186.2,30.8c-0.3,0.8-0.7,1.6-1,2.3c-0.3-0.1-0.6-0.2-0.9-0.4c0.3-0.8,0.6-1.6,0.8-2.4
		C185.4,30.5,185.8,30.6,186.2,30.8z"/>
	<path class="st0" d="M136,30.7c0-0.7-0.1-1.3-0.2-3.2c1.1,1.3,1.6,1.6,1.7,2.1c0.1,0.3-0.4,0.8-0.7,1.2
		C136.5,30.8,136.2,30.7,136,30.7z"/>
	<path class="st0" d="M83.1,228.1c-1.1,1.6-2.2,2.7-4,0.9L79,229c1.3-0.4,2.6-0.7,4-1.1L83.1,228.1z"/>
	<path class="st0" d="M242,229c-1.8,1.7-3,0.7-4-0.9l0.1-0.1C239.4,228.3,240.8,228.7,242,229L242,229z"/>
	<path class="st0" d="M135.3,26.1c-0.2-1.2-0.4-1.9-0.5-2.6c0.2-0.1,0.5-0.2,0.7-0.3c0.3,0.4,0.8,0.8,0.9,1.2
		C136.5,24.7,136,25.1,135.3,26.1z"/>
	<path class="st0" d="M171.7,20.5c-0.2,0.6-0.4,1.3-0.5,1.9c-0.3-0.1-0.6-0.2-0.9-0.2c0.2-0.6,0.4-1.3,0.5-1.9
		C171,20.3,171.4,20.4,171.7,20.5z"/>
	<path class="st0" d="M137.2,34.5c2.1-0.4,2.1-0.4,1.9,1.7C138.4,35.5,137.9,35.1,137.2,34.5z"/>
	<path class="st0" d="M160.4,8c-0.3-0.5-0.7-1-0.6-1.3c0.1-0.4,0.7-0.8,1.1-1.1c0.3,0.3,0.8,0.7,0.8,1C161.6,6.9,161.1,7.2,160.4,8z
		"/>
	<path class="st0" d="M149.2,30.1c-0.2-0.5-0.5-1.1-0.7-1.6c0.3-0.1,0.6-0.2,0.8-0.4c0.2,0.5,0.4,1.1,0.7,1.6
		C149.8,29.9,149.5,30,149.2,30.1z"/>
	<path class="st0" d="M188.1,27.5c-0.7,0.5-1.2,0.8-2,1.4c0-1,0-1.6,0-2.6C186.9,26.8,187.4,27.1,188.1,27.5z"/>
	<path class="st0" d="M183.3,23.7c0.4,0.3,0.9,0.6,1.1,1.1c0.1,0.3-0.4,0.8-0.9,1.6c-0.4-1-0.6-1.6-0.8-2.2
		C182.9,24,183.1,23.9,183.3,23.7z"/>
	<path class="st0" d="M142.2,38.6c1,0.8,1.4,1.2,2.5,2c-1.2,0.1-2,0.4-2.2,0.1C142.2,40.5,142.3,39.8,142.2,38.6z"/>
	<path class="st0" d="M178,25.2c-0.2,0.5-0.4,1-0.6,1.6c-0.3-0.3-0.6-0.5-0.9-0.8c0.3-0.4,0.6-0.8,0.9-1.1
		C177.6,25,177.8,25.1,178,25.2z"/>
	<path class="st0" d="M151.1,22.9c-1-0.7-1.5-1-2.2-1.4c0.6-0.6,1.1-1,1.9-1.8C151,20.9,151,21.6,151.1,22.9z"/>
	<path class="st0" d="M170.9,28c0.2-0.5,0.4-1,0.6-1.7c0.6,0.4,1,0.7,1.6,1.1c-0.6,0.4-1,0.8-1.5,1.1
		C171.4,28.3,171.1,28.1,170.9,28z"/>
	<path class="st0" d="M168,13c0.1,0.6,0.1,1.2,0.2,1.8c-0.3,0-0.6,0-0.9,0.1c0-0.6-0.1-1.2-0.1-1.8C167.5,13.1,167.8,13.1,168,13z"
		/>
	<path class="st0" d="M183,36.9c-0.6,0-1.1,0.1-1.7,0.1c-0.1-0.2-0.1-0.4-0.2-0.7c0.5-0.2,1.1-0.4,1.6-0.6
		C182.9,36.1,182.9,36.5,183,36.9z"/>
	<path class="st0" d="M154.5,14.9c-0.9,0-1.5,0.1-2.1,0.1C152.9,13.1,153.4,13.3,154.5,14.9z"/>
	<path class="st0" d="M164.9,8.7c0,0.8,0.1,1.4,0.2,2.9c-0.9-1.2-1.2-1.6-1.5-2C163.9,9.3,164.3,9.1,164.9,8.7z"/>
	<path class="st0" d="M140.8,22.9c0.1,0.6,0.2,1.1,0.3,1.7c-0.3,0.1-0.5,0.1-0.8,0.2c-0.1-0.6-0.2-1.1-0.3-1.7
		C140.3,23,140.6,23,140.8,22.9z"/>
	<path class="st0" d="M155,9.2c1.7-0.1,2.2-0.2,3.2-0.3c-0.5,0.7-0.7,1.4-0.9,1.4C156.8,10.3,156.4,10,155,9.2z"/>
	<path class="st0" d="M145.4,25.4c0.4,0.2,0.8,0.2,1,0.4c0.2,0.2,0.3,0.5,0.6,1.2c-0.8-0.1-1.3-0.2-1.8-0.3
		C145.3,26.2,145.3,25.8,145.4,25.4z"/>
	<path class="st0" d="M79.1,229c-0.7-0.3-1.3-0.7-2-1L77,228C77.7,228.4,78.4,228.7,79.1,229L79.1,229z"/>
</g>
</svg>
