<?xml version="1.0" encoding="utf-8"?>
<!-- Generator: Adobe Illustrator 19.2.1, SVG Export Plug-In . SVG Version: 6.00 Build 0)  -->
<svg version="1.1" id="Layer_1" xmlns="http://www.w3.org/2000/svg" xmlns:xlink="http://www.w3.org/1999/xlink" x="0px" y="0px"
	 viewBox="0 0 308 95.5" style="enable-background:new 0 0 308 95.5;" xml:space="preserve">
<style type="text/css">
	.st0{fill:#FFFFFF;}
</style>
<g>
	<path class="st0" d="M61.8,92.2c-0.2-2.1-0.4-3.7-0.5-5.4c-0.6-7.6-1.1-15.1-1.7-22.7c-0.1-0.9,0-1.8,0-2.6
		c-0.2-3.9-0.4-7.8-0.5-11.7C59,44.5,59,39.2,58.8,34c-0.1-3.9-0.3-7.7-0.5-11.6c0-1.3,0-2.7,0-4c0.1-3.5,0.2-7,0.2-10.5
		c0-0.6-0.7-1.3-1.2-1.8c-1.1-0.9-2.2-1.7-3.5-2.8c-0.3,0.3-0.9,0.7-1.4,1.2c-0.1-0.1-0.2-0.1-0.3-0.2c0.7-1,1.3-2.1,2.1-2.9
		c0.3-0.3,1.1-0.2,1.6-0.1c1.5,0.4,3,0.8,4.5,1.3C60.6,2.8,61,3,61.3,3.2c4.1,2.6,8.1,5.3,12.2,7.8c1.5,0.9,3.1,1.7,5,0.7
		c0.1,0.1,0.2,0.2,0.4,0.3c-0.3,1-0.4,2.1-0.9,2.9c-1.5,2.2-1.7,4.8-1.6,7.3c0.2,6.5,0.7,13,1,19.6c0,0.4-0.3,1-0.7,1.3
		c-1.4,1-2.2,2.2-2.5,3.9c-0.2,0.9-1.1,1.8-1.8,2.5c-0.9,0.8-1,1.4,0.1,2c3.1,1.5,4.9,4.2,6.2,7.2c1,2.3,1.7,4.7,2.2,7.4
		c-0.7-0.4-1.4-0.7-1.9-1.3c-0.7-0.7-1.2-0.6-1.9-0.1c-1.7,1.1-2.8,2.5-3.3,4.7c-1.1,4.6-0.9,9,0.5,13.5c1,3.4,3.5,4.4,6.5,5.1
		c0.3,0.1,0.8-0.2,1-0.4c1.3-1.4,2.1-3,1.8-4.9c0-0.4,0-0.8-0.1-1.2c-0.3-2.6-0.4-5.3-3.8-6.1c-0.6,1-1.4,2.2-2.2,3.5
		c-0.2-1.7,0.7-4,1.6-4.3c2.6-0.8,4.4-0.3,5.2,2.1c0.8,2.6,1.2,5.3,1.6,8c0.2,1.6-3.2,5.8-4.5,5.9c-2.6,0.1-5-0.7-6.8-2.6
		c-1.2-1.3-2.2-2.9-2.8-4.5c-3.2-8-3.1-16-0.3-24c0.2-0.4-0.1-1.2-0.4-1.6c-1.5-1.4-3.2-2.1-5.4-1.5c-0.7,0.2-1.4,0.3-2.2,0.4
		c0.3,2.4,0.6,4.7,0.7,7.1c0.1,2,0,4.1-0.1,6.1c-0.1,2.4-0.4,4.7-0.5,7.1c-0.2,2.2-0.3,4.5-0.4,6.7c-0.1,1.6,0.1,3.3,0,4.9
		C63.2,89.7,63.1,90.9,61.8,92.2z M65.6,15c0,2.3-0.1,4.4,0,6.6c0.1,1.7,0,3.3-1.1,4.8c-0.5,0.7-1,1.8-0.9,2.7
		c0.1,3.7-0.2,7.4,0.9,11c0.6,2,0.8,4.1,1.2,6.3c1.2-1.4,2.2-2.8,3.4-3.9c1-0.9,1.2-1.9,1.2-3.1C70,33.2,69.8,27,69.5,20.8
		c0-0.6,0-1.2-0.1-1.9c-0.1-0.4-0.2-0.8-0.5-1.1C67.9,16.9,66.8,16,65.6,15z"/>
	<path class="st0" d="M250.7,3.4c-0.3,0.3-0.9,0.8-1.4,1.3c-0.1-0.1-0.2-0.1-0.3-0.2c0.7-1,1.3-2.1,2.1-2.9c0.3-0.3,1.1-0.2,1.6-0.1
		c1.5,0.4,3,0.8,4.5,1.3c0.4,0.1,0.7,0.4,1.1,0.6c4.1,2.6,8.1,5.3,12.2,7.8c1.3,0.8,2.7,1.5,4.4,1c1.2-0.4,1,0.5,0.9,1.2
		c-0.1,0.5-0.3,1.1-0.6,1.5c-2.2,3.1-1.9,6.8-1.8,10.3c0.1,5.5,0.7,11,1,16.5c0,0.5-0.3,1.3-0.7,1.6c-1.4,1-2.2,2.2-2.5,3.9
		c-0.2,0.9-1.1,1.8-1.8,2.5c-0.9,0.8-0.9,1.5,0.1,2c3.2,1.5,5,4.3,6.2,7.4c0.9,2.3,1.6,4.6,2.4,7c-0.1,0.1-0.2,0.2-0.3,0.3
		c-0.6-0.4-1.4-0.7-1.8-1.2c-0.8-0.8-1.4-0.6-2.1-0.1c-1.6,1.1-2.6,2.5-3.1,4.5c-1.2,4.8-0.9,9.4,0.7,14.1c1.1,3.2,3.7,3.9,6.4,4.6
		c0.3,0.1,0.7-0.2,0.9-0.4c1.2-1.3,2-2.8,1.9-4.7c0-0.3,0-0.6-0.1-0.9c-0.4-2.7-0.1-5.6-3.8-6.7c-0.6,1-1.4,2.2-2.1,3.4
		c-0.3-1.4,0.6-3.8,1.5-4.1c2.3-0.8,3.9-0.3,5,1.5c1.5,2.7,2.1,5.9,1.7,8.8c-0.3,1.9-2.1,3.7-3.5,5.2c-0.5,0.6-2.1,0.5-3,0.2
		c-3.6-1-6.1-3.1-7.4-6.7c-3-8.1-3.1-16.1-0.3-24.2c0.2-0.5-0.1-1.3-0.5-1.7c-1.5-1.4-3.2-2.1-5.2-1.5c-0.7,0.2-1.4,0.3-2.2,0.4
		c0.2,2.2,0.3,4.3,0.6,6.4c0.4,2.4,0.4,4.6-0.1,7c-0.5,2.3-0.4,4.7-0.5,7.1c-0.1,1.8-0.4,3.6-0.5,5.3c-0.1,2,0.1,4.1,0,6.1
		c-0.1,1.1-0.5,2.2-0.7,3.2c-0.2,0-0.4-0.1-0.7-0.1c-0.2-1.7-0.3-3.3-0.5-5c-0.6-7.5-1.1-15-1.7-22.5c-0.1-0.8,0-1.6,0-2.5
		c-0.2-4-0.4-7.9-0.5-11.9c-0.1-5.4-0.2-10.8-0.3-16.2c-0.1-3.8-0.3-7.6-0.5-11.4c0-0.7-0.1-1.3-0.1-2c0.1-4.1,0.3-8.2,0.3-12.4
		c0-0.5-0.5-1.2-1-1.6C253.4,5.3,252.1,4.4,250.7,3.4z M262.6,15c0,2.2-0.1,4.4,0,6.5c0.1,1.8,0.1,3.4-1.1,5c-0.5,0.7-1,1.8-0.9,2.6
		c0.2,3.6-0.2,7.3,0.9,10.9c0.6,2,0.8,4.2,1.2,6.4c1.3-1.5,2.6-2.9,3.7-4.3c0.4-0.6,0.9-1.4,0.8-2.1c-0.2-6.6-0.4-13.2-0.7-19.8
		c0-0.5,0-0.9-0.1-1.4c-0.1-0.3-0.2-0.7-0.5-0.9C264.8,16.9,263.7,16,262.6,15z"/>
	<path class="st0" d="M28.4,2.4c3-0.6,4.9,0.8,6.8,2.5c2.5,2.4,5.1,4.8,7.7,7.2c1,0.9,1.9,1.9,2.9,2.8c1.5,1.5,2.1,3.4,1.9,5.5
		c-0.1,1-0.1,1.9,0.1,2.9c0.6,3.2,0.6,6.4-0.2,9.6c-0.5,2.1-0.7,4.3-1.6,6.2c-0.7,1.5-2.2,2.7-3.3,4.1c0.8,0.5,1.9,1.1,2.9,1.8
		c1.6,1.1,2.2,2.6,2.2,4.6c-0.1,6.2-0.5,12.3,0,18.5c0.3,4.6-0.9,8.8-1.7,13.1c-0.2,1.3-0.6,2.7-1,4c-0.4,1.3-1.2,1.9-2.6,2.3
		c-2.8,0.8-5.7,1.8-8.4,3.1c-1.6,0.7-2.9,2.1-4.6,3.4c0.1-0.5,0.1-0.7,0.3-0.9c0.9-1.5,1.9-3.1,2.8-4.6c0.2-0.3,0.4-0.7,0.3-1
		c-0.2-3.6-0.3-7.2-0.6-10.8c-0.5-6-1.3-11.9-1.7-17.8c-0.2-3.9,0.2-7.9,0.3-11.9c0.1-1.9,0.3-3.8,0.2-5.7
		c-0.4-6.2,0.6-12.4-0.4-18.7c-0.5-3.4,0.3-7.1,0.5-10.6c0.1-1.5,0.2-3.1,0.5-4.6c0.1-1-0.1-1.7-1.1-2.2C29.6,4.7,28.2,4.1,28.4,2.4
		z M36.5,45.8c-1.4,1.2-1.3,2.5-1.2,3.9c0.3,3.5,1.2,7,0.8,10.4c-0.8,6.8-1.4,13.7-1.5,20.5c0,1.6,0.3,3.1,0.5,4.7
		c0.1,0,0.3,0.1,0.4,0.1c1.6-1.7,3.2-3.5,4.8-5.2c1.3-1.3,2.4-2.7,1.1-4.7c-0.1-0.2-0.1-0.5-0.1-0.8c-1.2-8.2-1.4-16.4-0.8-24.7
		c0-0.5,0.1-1.2-0.2-1.4C39.1,47.7,37.8,46.8,36.5,45.8z M37.7,14.8c-0.1,0.1-0.3,0.1-0.4,0.2c0.1,0.7,0.3,1.4,0.3,2.1
		c0.3,2.3,0.8,4.6,0.6,6.9c-0.2,2.4-0.7,4.9-1.8,6.9c-1.7,3.2-0.9,6.4-1.1,9.6c0,0.2,0.3,0.4,0.7,0.8c1.8-2.2,3.2-4.5,5.3-6.2
		c1.8-1.4,1.6-2.9,1.4-4.7c-0.1-1.6-0.2-3.2-0.3-4.7c0-1.4,0-2.9,0-4.3c0-0.4-0.1-0.9-0.3-1.1C40.6,18.3,39.1,16.6,37.7,14.8z"/>
	<path class="st0" d="M239.2,43.1c1,0.6,2,1.2,3,1.9c1.8,1.2,2.5,2.8,2.3,5c-0.2,1.7,0.1,3.4,0.1,5.1c0,5.1,0,10.3,0,15.4
		c0,1.3-0.1,2.5-0.4,3.8c-0.4,2.2-0.5,4.6-1.4,6.6c-0.7,1.5-0.5,3.3-1.3,4.6c-0.5,0.8-1.3,1.5-2.1,1.8c-2.8,1.1-5.8,1.9-8.5,3.2
		c-1.7,0.8-3,2.2-4.8,3.4c0.2-0.5,0.2-0.8,0.4-1.1c0.9-1.5,1.9-3,2.7-4.5c0.3-0.5,0.4-1.1,0.3-1.6c-0.4-5.9-0.9-11.7-1.3-17.6
		c-0.3-3.6-0.9-7.3-0.9-10.9c-0.1-4.2,0.3-8.3,0.4-12.5c0.1-2.1,0-4.2,0-6.3c0-2,0.2-3.9,0.2-5.9c0-2,0.3-4-0.1-5.9
		c-0.9-5.1-0.6-10.2,0-15.2c0.2-1.9,0.4-3.8,0.5-5.7c0-0.5-0.4-1.1-0.8-1.5c-0.7-0.6-1.5-1.1-2.2-1.7c-0.2-0.2-0.3-0.8-0.2-1.1
		c0-0.1,0.6-0.2,0.9-0.3c2.3-0.3,3.9,0.9,5.5,2.3c2.9,2.7,5.8,5.4,8.7,8.1c0.7,0.7,1.4,1.4,2.1,2.1c1.4,1.5,2.2,3.2,2,5.3
		c-0.1,1.3,0,2.6,0.3,3.8c0.8,3.5-0.1,7-0.5,10.4c-0.2,2.1-0.7,4.1-1.9,5.8C241.5,41.3,240.3,42.1,239.2,43.1z M231.9,86
		c2-2.2,3.8-4.1,5.5-6c1.1-1.2,2-2.3,0.9-4c-0.3-0.4-0.2-1-0.3-1.5c-1-7.4-1.5-14.9-0.7-22.4c0.3-2.7-0.6-4.1-2.7-5.4
		c-1.6-1-2.2-0.8-2.5,1.1c-0.1,0.4,0,0.9,0,1.4c0.4,4.9,1.4,9.8,0.5,14.8c-0.6,3.3-0.7,6.6-0.9,10c-0.2,2.3-0.2,4.6-0.2,6.9
		C231.5,82.4,231.7,83.9,231.9,86z M234.5,14.8c-0.2,0.1-0.3,0.1-0.5,0.2c0.4,2,1.1,4,1,6c-0.2,3.1-0.2,6.4-1.5,9.1
		c-1.6,3.4-1.3,6.8-1.4,10.2c0,0.2,0.4,0.4,0.6,0.7c0.3-0.3,0.6-0.4,0.8-0.7c2.1-2.2,4.1-4.5,6.1-6.7c0.2-0.2,0.2-0.6,0.1-0.8
		c-0.1-2.9-0.3-5.7-0.4-8.6c-0.1-1.3,0.3-2.9-0.3-3.9C237.7,18.3,236,16.6,234.5,14.8z"/>
	<path class="st0" d="M298.5,95.3c-0.2-2.2-0.4-4.4-0.7-6.7c-0.3-3.3-0.7-6.6-1.1-9.8c-0.6-5.2-1.1-10.3-0.8-15.6
		c0.2-4.7,0.6-9.4,0.8-14.2c0-0.7-0.1-1.4-0.2-2.5c-1,0.5-1.7,0.8-2.6,1.3c-0.7-0.4-1.7-0.9-3-1.6c0.3,5.5,0.6,10.7,0.8,15.8
		c0,0.2,0.1,0.3,0,0.5c-1.6,6.4-0.1,13-1.5,19.4c-0.5,2.2-0.2,4.5-0.4,6.8c-0.1,1.3-0.4,2.5-0.7,3.8c-0.2,0-0.4,0-0.6-0.1
		c-0.2-2.1-0.3-4.1-0.5-6.2c-0.7-7.6-1.4-15.3-2-22.9c-0.3-3.8-0.4-7.7-0.4-11.6c-0.1-3.2-0.2-6.4,0-9.5c0.2-2.1,1.2-4,1.6-6.1
		c0.2-1-0.1-2.1-0.3-3.1c-0.4-2.7-1.1-5.3-1.3-8c-0.1-3,0.1-6,0.4-8.9c0.2-1.8,1.3-3.1,3-4c1.5-0.8,2.8-2.1,4.2-3.2
		c0.3-0.2,0.5-0.5,0.8-0.7c2.9-1.9,5.8-3.9,8.8-5.6c1.1-0.6,2.7-0.6,4-0.7c0.3,0,0.7,0.5,1,0.8c-0.3,0.3-0.5,0.7-0.8,0.9
		c-1.6,1.5-3.3,2.9-4.9,4.4C302,8.4,302,9,302,9.4c0.2,4.8,0.5,9.6,0.7,14.4c0.2,3.6,0.5,7.2,0.4,10.8c-0.1,4.2-0.2,8.5-2.6,12.2
		c-1,1.5-1,3-0.9,4.7c0.2,3.5,0.2,7,0.5,10.5c0.1,1.7,0.6,3.4,0.9,5.2c0.2,1.3,0.3,2.6,0.5,3.9c0.6,5.2-0.9,10.2-1.3,15.3
		c-0.2,2.4-0.1,4.8-0.2,7.2c0,0.6-0.4,1.2-0.6,1.8C299,95.4,298.8,95.4,298.5,95.3z M296.9,17.3c-2.4-0.7-2.9,1.1-3.5,2.6
		c-0.2,0.5-0.5,0.9-0.6,1.4c-0.2,0.4-0.5,0.9-0.3,1.3c1.3,3.5,0.8,7,0.3,10.6c-0.2,1.4-0.9,2.8-1.5,4.1c-0.5,1.1-0.1,3.6,0.8,3.8
		c1.3,0.2,2.6,0.4,4.1,0.6C295.4,33.4,294.8,25.3,296.9,17.3z"/>
	<path class="st0" d="M101.5,95.3c-0.2-2.3-0.4-4.6-0.7-6.8c-0.3-3.3-0.7-6.6-1.1-9.8c-0.6-5.2-1.5-10.4-0.7-15.7c0.1-0.7,0-1.3,0-2
		c0.2-2.7,0.3-5.4,0.5-8.1c0.1-1.4,0.2-2.8,0.2-4.2c0-0.6-0.4-1.1-0.6-1.7c-0.7,0.3-1.3,0.5-2.3,0.9c-0.6-0.3-1.6-0.8-2.8-1.5
		c0,3.4-0.3,6.7,0.1,9.8c0.6,4.3,0.7,8.4-0.3,12.6c-0.3,1.1-0.3,2.4-0.1,3.5c0.6,3.2-0.2,6.3-0.5,9.4c-0.3,2.5-0.2,5-0.4,7.5
		c-0.1,1.2-0.5,2.3-0.8,3.4c-0.1,0-0.3-0.1-0.4-0.1c-0.3-2.9-0.6-5.9-0.9-8.8c-0.6-6.8-1.2-13.5-1.7-20.3c-0.2-2.9-0.2-5.9-0.3-8.8
		c-0.1-4.1-0.3-8.1-0.1-12.2c0.1-1.6,0.9-3.2,1.4-4.8c0.5-1.7,0.4-3.3-0.3-5.1c-1.5-4-1.3-8.2-1.2-12.4c0-0.8,0.1-1.5,0.2-2.3
		c0.3-2.6,1.2-4.8,4-5.9c1.3-0.5,2.3-1.8,3.5-2.7c0.4-0.3,0.7-0.7,1-0.9c2.9-1.9,5.7-3.8,8.6-5.5c1.1-0.6,2.6-0.6,3.9-0.7
		c0.4,0,0.8,0.6,1.2,0.9c-0.3,0.3-0.6,0.6-0.9,0.9c-1.6,1.5-3.3,2.9-4.9,4.4C105,8.5,105,9.1,105,9.5c0.2,4.3,0.5,8.5,0.7,12.8
		c0.2,4.1,0.5,8.2,0.4,12.3c-0.1,4.2-0.2,8.5-2.6,12.2c-0.9,1.4-1.1,2.8-1,4.4c0.2,3.7,0.2,7.3,0.5,11c0.1,1.9,0.7,3.7,1.1,5.6
		c0.1,0.5,0.4,1.1,0.4,1.6c-0.1,3.3-0.3,6.6-0.5,10c-0.3,4.8-0.7,9.5-1.1,14.3c0,0.6-0.4,1.2-0.6,1.8
		C102.1,95.4,101.8,95.4,101.5,95.3z M100,17.3c-2.5,0.2-2.5,0.2-3.4,2.4c-0.2,0.6-0.5,1.1-0.8,1.7c-0.2,0.4-0.4,0.9-0.3,1.3
		c1.3,3.8,0.7,7.7,0.1,11.5c-0.2,1.1-0.8,2.1-1.3,3c-0.6,1-0.3,3.7,0.6,3.9c1.3,0.3,2.7,0.4,4.2,0.6C98.4,33.4,97.8,25.3,100,17.3z"
		/>
	<path class="st0" d="M152.1,47.8c-0.7-0.4-1.7-0.9-3-1.6c0.2,4.4,0.3,8.6,0.6,12.7c0.3,3.4,0,6.7-0.7,10c-0.2,0.7-0.2,1.5-0.2,2.3
		c0,2.6,0.2,5.1,0.1,7.7c-0.1,3.5-0.4,7.1-0.7,10.6c-0.1,1.1-0.6,2.1-1.3,3c-0.3-3-0.6-6.1-0.9-9.1c-0.6-6.7-1.2-13.3-1.7-20
		c-0.2-2.9-0.2-5.9-0.3-8.8c-0.1-4.1-0.1-8.1-0.1-12.2c0-0.5,0.5-1,0.6-1.6c0.5-1.8,0.9-3.6,1.3-5.4c0.1-0.5,0-1.1-0.1-1.5
		c-2.4-5.8-2.1-11.8-1.2-17.8c0.2-1.8,1.3-3,2.9-3.9c1.6-0.9,2.9-2.2,4.4-3.3c0.2-0.2,0.4-0.4,0.7-0.6c2.9-1.9,5.8-3.9,8.8-5.6
		c1.1-0.6,2.6-0.6,3.9-0.7c0.4,0,0.8,0.6,1.2,0.9c-0.3,0.3-0.6,0.6-0.9,0.9c-1.6,1.5-3.3,2.9-4.9,4.4c-0.2,0.2-0.3,0.7-0.3,1.1
		c0.2,4.4,0.5,8.8,0.7,13.2c0.2,4,0.5,8,0.4,12c-0.1,4.2-0.2,8.5-2.6,12.2c-0.9,1.3-1.1,2.7-1,4.2c0.2,3.7,0.2,7.4,0.5,11.1
		c0.1,1.9,0.7,3.7,1.1,5.6c0.1,0.6,0.4,1.2,0.4,1.8c-0.1,3.4-0.3,6.9-0.5,10.3c-0.3,4.6-0.6,9.2-1,13.8c0,0.6-0.4,1.2-0.6,1.8
		c-0.2,0-0.4-0.1-0.7-0.1c-0.3-1.7-0.7-3.4-0.9-5.1c-0.7-6.3-1.3-12.6-1.9-18.9c-0.1-1.1-0.2-2.2-0.2-3.2c0.1-3.8,0.1-7.6,0.3-11.4
		c0.1-2.4,0.5-4.8,0.8-7.2c0-0.3,0.1-0.6,0-0.9c-0.2-0.6-0.5-1.5-0.8-1.5C153.6,47,153,47.4,152.1,47.8z M155.1,17.3
		c-1.4-0.1-2.5-0.1-3,1.3c-0.3,0.9-0.8,1.8-1.2,2.7c-0.2,0.5-0.4,1-0.3,1.4c0.9,2.6,0.9,5.3,0.6,8c-0.3,2.3-0.1,4.7-1.9,6.7
		c-0.7,0.8-0.1,3.5,0.8,3.7c1.3,0.3,2.6,0.4,4.1,0.6C153.7,33.4,152.9,25.3,155.1,17.3z"/>
	<path class="st0" d="M210.2,95.4c-0.3-1.8-0.7-3.5-0.9-5.3c-0.7-6.4-1.4-12.8-1.9-19.2c-0.2-2.2,0.1-4.5,0.1-6.8c0-1.3,0-2.7,0.1-4
		c0.1-2.3,0.3-4.6,0.5-6.9c0.1-1.5,0.3-3,0.2-4.5c0-0.6-0.4-1.2-0.6-1.9c-0.7,0.3-1.4,0.5-2.2,0.9c-0.7-0.4-1.7-0.9-2.6-1.4
		c0,3.7-0.3,7.4,0.1,11c0.4,3.9,0.3,7.7-0.6,11.5c-0.2,0.6-0.4,1.4-0.2,2c0.9,3.6,0.2,7.1-0.2,10.6c-0.3,2.5-0.2,5.1-0.4,7.7
		c-0.1,1.1-0.6,2.2-0.9,3.3c-0.1,0-0.3,0-0.4,0c-0.1-1-0.3-2-0.4-2.9c-0.3-3.1-0.9-6.2-0.9-9.3c0-7-1.9-13.8-1.2-20.8
		c0.2-1.9-0.4-3.8-0.4-5.7c-0.1-3.8-0.3-7.5,0-11.3c0.1-2.1,1.2-4.1,1.6-6.2c0.2-1-0.1-2.1-0.3-3.1c-0.3-1.6-1-3.2-1-4.8
		c-0.1-3.9-0.1-7.8,0.1-11.7c0.1-2.1,1.3-3.5,3.3-4.5c1.5-0.7,2.7-2,4-3c0.3-0.3,0.6-0.6,0.9-0.8c2.9-1.9,5.7-3.8,8.6-5.5
		c1.1-0.6,2.7-0.6,4-0.8c0.3,0,0.8,0.5,1.1,0.8c-0.3,0.3-0.5,0.6-0.8,0.9c-1.6,1.5-3.3,2.9-4.9,4.4c-0.3,0.2-0.3,0.8-0.3,1.2
		c0.2,4.2,0.5,8.4,0.7,12.6c0.2,4.2,0.5,8.4,0.4,12.6c-0.1,4.3-0.3,8.5-2.7,12.4c-0.6,1-0.9,2.5-0.9,3.8c0,3.8,0.1,7.6,0.4,11.4
		c0.1,1.9,0.7,3.7,1.1,5.6c0.1,0.7,0.3,1.5,0.3,2.3c0.1,4.1-0.3,8.2-0.8,12.3c-0.5,3.8-0.5,7.6-0.7,11.4c0,0.6-0.4,1.2-0.6,1.8
		C210.6,95.4,210.4,95.4,210.2,95.4z M208.4,17.4c-2.3-0.7-2.8,1-3.4,2.4c-0.3,0.6-0.7,1.1-0.9,1.7c-0.1,0.3-0.2,0.8-0.1,1.1
		c1.1,2.7,0.9,5.5,0.6,8.2c-0.3,2.3-0.3,4.6-1.8,6.6c-0.5,0.7-0.2,2.9,0.5,3.4c1.1,0.7,2.8,0.6,4.3,0.8
		C206.9,33.3,206.3,25.3,208.4,17.4z"/>
	<path class="st0" d="M13.1,95.3c-0.3-2-0.6-4-0.8-6.1c-0.4-3.6-0.6-7.3-1.1-10.9c-0.7-5.2-1.4-10.4-0.6-15.7c0.1-0.9-0.1-1.9,0-2.8
		c0.1-2.1,0.3-4.3,0.4-6.4c0.1-1.6,0.3-3.2,0.3-4.8c0-0.6-0.4-1.2-0.6-1.7c-0.7,0.2-1.4,0.5-2.4,0.8c-0.6-0.3-1.6-0.9-2.9-1.5
		c0.2,4.5,0.3,8.7,0.7,12.8c0.3,3.4-0.1,6.7-0.8,10c-0.2,0.7-0.3,1.5-0.2,2.1c0.7,3.3,0.2,6.4-0.2,9.7c-0.4,2.8-0.3,5.6-0.5,8.5
		c-0.1,1.1-0.6,2.2-0.9,3.3c-0.1,0-0.3-0.1-0.4-0.1c-0.3-3.1-0.7-6.3-0.9-9.4C1.6,76.4,1,69.8,0.6,63.2c-0.2-3-0.3-6.1-0.3-9.1
		c-0.1-3.9-0.2-7.8,0-11.7c0.1-1.6,0.9-3.1,1.4-4.7c0.5-1.8,0.3-3.4-0.2-5.2c-1.7-5.5-1.7-11.2-0.6-16.8c0.3-1.6,1.3-2.5,2.7-3.4
		c1.6-0.9,2.9-2.2,4.4-3.3c0.3-0.2,0.6-0.6,0.9-0.8c2.8-1.8,5.6-3.8,8.5-5.4c1.2-0.7,2.8-0.6,4.2-0.8c0.3,0,0.7,0.5,1,0.8
		c-0.3,0.3-0.5,0.7-0.8,0.9c-1.6,1.5-3.3,2.9-4.9,4.4c-0.3,0.2-0.3,0.8-0.3,1.2c0.2,4.4,0.5,8.7,0.7,13.1c0.2,4,0.5,8.1,0.4,12.1
		c-0.1,4.2-0.1,8.5-2.6,12.2c-1.6,2.3-0.7,4.8-0.7,7.2c0,2.5,0,5,0.3,7.6c0.2,2,0.7,4,1,6.1c0.1,0.7,0.4,1.4,0.4,2.1
		c-0.2,3.5-0.4,7.1-0.6,10.6c-0.3,4.5-0.6,9-1,13.5c0,0.6-0.4,1.1-0.6,1.6C13.5,95.4,13.3,95.4,13.1,95.3z M11.5,17.2
		C9,17.4,9,17.4,8,19.6c-0.3,0.7-0.8,1.3-1.1,2c-0.1,0.3-0.1,0.7,0,1c1.1,2.7,0.9,5.6,0.6,8.4c-0.2,2.2-0.2,4.5-1.8,6.4
		C5,38.1,5.6,40.8,6.3,41c1.4,0.3,2.8,0.4,4.3,0.6C10,33.4,9.4,25.3,11.5,17.2z"/>
	<path class="st0" d="M166.1,90.7c0.5-0.3,1-0.8,1.5-0.8c2.8,0,4-2,4.9-4c1.1-2.4,1.1-4.9,1-7.5c-0.4-7.1-0.6-14.3-0.7-21.4
		c0-2.5,0.6-5.1,0.8-7.6c0.1-1.8-0.1-3.6-0.3-5.4c-0.8-5.7-1.3-11.4-0.7-17.3c0.4-4.1,0-8.2,0-12.3c0-2.4,0.3-4.7,0.3-7.1
		c-0.1-2,0-4.1-2-5.4c-0.3-0.2-0.2-0.9-0.4-1.8c1.3,0.7,2.3,1.1,3.1,1.8c3.6,2.9,7.1,6,10.7,8.9c1.4,1.1,2.9,2.1,4.4,3
		c0.6,0.4,1.1,0.6,0.9,1.5c-0.6,3.6-0.1,7.2,0,10.8c0.1,2.9-0.6,5.8-0.9,8.7c-0.5,5-1.2,9.9-1.4,14.9c-0.2,4.9,0.8,9.8,1.9,14.6
		c0.3,1.4-0.2,2.9-0.3,4.4c-0.1,0.9-0.1,1.8,0,2.6c0.3,1.7-0.6,2.9-1.7,3.9c-1.3,1.1-1.8,2.6-2.3,4.2c-0.7,2.5-2,5-5,5.7
		c-0.3,0.1-0.6,0.2-0.8,0.4c-2.2,1.5-4.4,3-6.5,4.7c-1.6,1.4-3.2,2.1-5.3,1.1c-0.3-0.1-0.7-0.1-1-0.2
		C166.2,91,166.2,90.8,166.1,90.7z M175.7,81.7c0.4-0.3,0.6-0.4,0.7-0.6c2.1-2.4,4.1-4.7,6.2-7.1c0.4-0.4,0.7-1,0.7-1.5
		c0.2-2.2,0.4-4.4,0.6-6.6c0.2-3.7,0.6-7.4,0.6-11c0.2-10.1-0.1-20.2,0.4-30.3c0.3-5-3.1-7-5.8-9.8c-0.1,1-0.3,1.9-0.4,2.9
		c-0.1,1.2-0.5,2.4-0.3,3.5c0.6,2.1,0.7,4-0.2,6c-0.3,0.7-0.5,1.6-0.6,2.4c-0.2,2.1-0.3,4.2-0.5,6.3c-0.3,2.7-0.8,5.3-1,7.9
		c-0.2,4.6,0.2,9.1,1,13.7c0.4,2.1,0.9,4.2,0.9,6.4c0,2.4-0.4,4.8-0.7,7.2c-0.3,2.6-0.6,5.1-0.9,7.6C176.3,79.6,176,80.5,175.7,81.7
		z"/>
	<path class="st0" d="M138.3,12.6c-1.4,1.8-2.6,3.2-3.5,4.7c-0.8,1.5-1.3,3.1-1.8,4.7c-0.3,1-0.3,2.1-0.2,3.2c0.4,2.6-1,4.4-2.8,6
		c-0.3,0.3-1.2,0.2-1.7-0.1c-0.9-0.4-1-1.2-0.4-2.2c0.4,0.4,0.8,0.7,1.4,1.2c1.3-1.2,1.5-2.9,1.5-4.5c-0.1-7.1-2.4-11.9-7.6-15.2
		c0,1.9-0.1,3.5,0,5.1c0.1,2,0.6,4.1,0.7,6.1c0.1,2.9,0,5.8,0.1,8.7c0,0.7,0.2,1.4,0.2,2c0,0.9-0.3,1.7-0.4,2.6
		c-0.3,3.4-0.6,6.9-1,10.3c-0.1,1.1-0.3,2.2-0.7,3.3c-1.2,4.1,0.2,8,0.8,12c0.1,0.7,0.2,1.3,0.2,2c-0.4,4.2-0.4,8.3,0.3,12.5
		c0.4,2.1,0.1,4.4,0.3,6.7c0.3-0.5,0.6-1,0.9-1.4c2.8-3.8,4.3-8.1,4.7-12.8c0-0.1,0-0.2,0-0.3c0.8-3.9,0.8-3.9-1.1-7.5
		c0.1-0.1,0.2-0.2,0.3-0.3c1.4,1.8,2.9,3.5,4.1,5.4c0.9,1.4,0.8,3.1,0.7,4.9c-0.2,3.5,0.1,7.1,0.2,10.6c0,1,0.4,2.3-1.4,2.3
		c-0.3,0-0.6,0.5-0.9,0.8c-1.6,1.7-3.3,3.4-4.8,5.2c-0.6,0.6-1,1.5-1.5,2.1c-0.3,0.4-0.8,0.8-1.1,1.1c-1.4-2.4-2.8-4.4-3.9-6.6
		c-1.7-3.4-1.8-7.2-2.1-10.9c-0.3-3.6,0-7.2-0.1-10.8c-0.1-3.7-0.4-7.4-0.5-11.1c-0.2-5-0.4-10.1-0.3-15.1c0.1-7,0.6-14,0.8-21
		c0.1-4-0.1-8-0.2-12c0-0.7-0.4-1.5-0.7-2.6c0.8,0.2,1.4,0.3,1.9,0.6c1.3,0.6,2.5,1.6,3.8,1.9c4,0.9,7,3.4,9.8,6.2
		C134,12,135.5,13.2,138.3,12.6z"/>
</g>
</svg>
